<!-- Created with Inkscape (http://www.inkscape.org/) -->
<svg
   xmlns:svg="http://www.w3.org/2000/svg"
   xmlns="http://www.w3.org/2000/svg"
   xmlns:xlink="http://www.w3.org/1999/xlink"
   version="1.0"
   viewBox="0 0 599.13489 248.39062"
   width="180.905px"
   height="75px"
   id="uw_logo">
  <g
     transform="translate(-293.81976,-282.57259)"
     id="wisc_logo">
    <g
       transform="translate(308.29855,-214.11833)"
       id="text"
       style="fill:#000000">
      <path
         d="M 257.01794,642.57561 C 257.01794,646.26411 257.48332,652.33449 253.60482,653.81049 L 253.60482,654.05561 L 268.34269,654.05561 L 268.34269,653.81049 C 264.4642,652.25049 264.92957,646.26411 264.92957,642.57561 L 264.92957,611.65574 C 264.92957,607.96674 264.4642,601.89699 268.34269,600.33936 L 268.34269,600.09324 L 253.60482,600.09324 L 253.60482,600.33936 C 257.56144,601.89699 257.01794,607.88324 257.01794,611.65574 L 257.01794,642.57561 M 302.37857,600.58549 C 298.65482,599.35549 294.69857,598.77924 290.82107,598.77924 C 281.35932,598.77924 271.35294,602.71674 271.35294,613.04936 C 271.35294,630.43699 298.03482,628.13911 298.03482,640.93549 C 298.03482,646.67436 291.36357,649.46286 286.94357,649.46286 C 280.89244,649.46286 274.53257,646.83786 269.95794,642.65674 L 272.20644,652.90823 C 276.62732,654.63186 281.35932,655.36911 286.09107,655.36911 C 298.18982,655.36911 306.87607,647.16799 306.87607,638.39061 C 306.87607,623.22073 280.1957,623.38423 280.1957,612.14799 C 280.1957,606.48924 285.77982,604.68549 290.20107,604.68549 C 294.54357,604.68549 299.35357,606.57173 302.37857,609.85061 L 302.37857,600.58549 M 350.68232,600.83061 C 346.10607,599.68311 341.29732,598.77924 336.56607,598.77924 C 320.66607,598.77924 309.34232,610.01711 309.34232,626.99174 C 309.34232,644.54299 320.66607,655.36911 338.96982,655.36911 C 343.00357,655.36911 347.03607,654.71186 350.68232,652.90823 L 354.63732,643.39549 L 354.40482,643.39549 C 349.51857,646.34811 343.70107,648.56199 337.88482,648.56199 C 325.93982,648.56199 318.18357,637.81686 318.18357,625.76174 C 318.18357,613.86911 325.62857,605.58786 336.33357,605.58786 C 341.45357,605.58786 346.41607,607.39311 350.68232,610.26174 L 350.68232,600.83061 M 382.95107,604.60449 C 395.20607,604.60449 402.41982,616.16699 402.41982,628.13911 C 402.41982,640.36186 394.89482,649.46286 383.10607,649.46286 C 370.91982,649.46286 363.23732,637.65424 363.23732,626.17186 C 363.23732,613.78949 370.91982,604.60449 382.95107,604.60449 L 382.95107,604.60449 z M 383.49357,598.69924 C 367.19357,598.28811 354.39607,611.32811 354.39607,626.90911 C 354.39607,643.72311 367.34857,655.36911 382.71857,655.36911 C 398.15357,655.36911 411.26107,643.23049 411.26107,626.49949 C 411.26107,611.73824 399.78232,598.61574 383.49357,598.69924 L 383.49357,598.69924 M 423.66607,611.65574 L 450.26857,647.33199 C 453.68232,652.00686 456.08732,654.71186 461.59357,656.67924 L 461.59357,610.67186 C 461.59357,606.07961 461.59357,602.79836 465.62607,600.33936 L 465.62607,600.09324 L 451.97607,600.09324 L 451.97607,600.33936 C 456.08732,602.79836 456.00857,606.07961 456.00857,610.67186 L 456.00857,641.75586 L 427.62107,603.86424 L 426.53607,602.22411 C 425.99232,601.56936 425.68232,601.15911 425.37107,600.17574 L 425.37107,600.09324 L 414.04857,600.09324 L 414.04857,600.33936 C 418.08107,602.79836 418.08107,606.07961 418.08107,610.67186 L 418.08107,643.39549 C 418.08107,647.98824 418.08107,651.26711 413.96982,653.81049 L 413.96982,654.05561 L 427.69982,654.05561 L 427.69982,653.81049 C 423.58857,651.26711 423.66607,647.98824 423.66607,643.39549 L 423.66607,611.65574 M 498.74732,600.58549 C 495.02357,599.35549 491.06857,598.77924 487.18982,598.77924 C 477.72857,598.77924 467.72232,602.71674 467.72232,613.04936 C 467.72232,630.43699 494.40357,628.13911 494.40357,640.93549 C 494.40357,646.67436 487.73357,649.46286 483.31232,649.46286 C 477.26232,649.46286 470.90232,646.83786 466.32607,642.65674 L 468.57607,652.90823 C 472.99732,654.63186 477.72857,655.36911 482.45857,655.36911 C 494.55857,655.36911 503.24607,647.16799 503.24607,638.39061 C 503.24607,623.22073 476.56357,623.38423 476.56357,612.14799 C 476.56357,606.48924 482.14857,604.68549 486.56982,604.68549 C 490.91357,604.68549 495.72232,606.57173 498.74732,609.85061 L 498.74732,600.58549 M 510.44232,642.57561 C 510.44232,646.26411 510.90732,652.33449 507.02982,653.81049 L 507.02982,654.05561 L 521.76732,654.05561 L 521.76732,653.81049 C 517.88857,652.25049 518.35357,646.26411 518.35357,642.57561 L 518.35357,611.65574 C 518.35357,607.96674 517.88857,601.89699 521.76732,600.33936 L 521.76732,600.09324 L 507.02982,600.09324 L 507.02982,600.33936 C 510.98607,601.89699 510.44232,607.88324 510.44232,611.65574 L 510.44232,642.57561 M 534.85982,611.65574 L 561.46357,647.33199 C 564.87732,652.00686 567.28107,654.71186 572.78857,656.67924 L 572.78857,610.67186 C 572.78857,606.07961 572.78857,602.79836 576.82107,600.33936 L 576.82107,600.09324 L 563.17107,600.09324 L 563.17107,600.33936 C 567.28107,602.79836 567.20357,606.07961 567.20357,610.67186 L 567.20357,641.75586 L 538.81607,603.86424 L 537.72982,602.22411 C 537.18607,601.56936 536.87607,601.15911 536.56607,600.17574 L 536.56607,600.09324 L 525.24232,600.09324 L 525.24232,600.33936 C 529.27607,602.79836 529.27607,606.07961 529.27607,610.67186 L 529.27607,643.39549 C 529.27607,647.98824 529.27607,651.26711 525.16482,653.81049 L 525.16482,654.05561 L 538.89357,654.05561 L 538.89357,653.81049 C 534.78357,651.26711 534.85982,647.98824 534.85982,643.39549 L 534.85982,611.65574 M 211.02669,606.64061 L 221.34319,640.45161 C 224.43794,650.57424 225.09319,650.08299 233.72107,656.27436 L 253.50869,588.65186 L 239.06682,588.65186 L 239.06682,588.94824 C 246.38082,591.60199 243.28657,599.56299 241.59857,605.16548 L 231.00132,641.14061 L 217.96669,598.58199 C 216.65319,594.25536 215.99744,591.11086 216.56044,588.65186 L 203.33682,588.65186 L 203.33682,588.94824 C 208.49544,591.70161 206.61907,598.08786 204.83832,604.08449 L 193.86507,641.43311 L 179.89294,595.73049 C 179.32994,593.86186 178.39244,590.81536 178.76744,588.65186 L 165.07607,588.65186 L 165.07607,588.94824 C 169.76503,592.29048 171.17132,598.67924 172.85932,604.08449 L 183.92469,640.35449 C 187.01944,650.47561 187.86419,649.78811 196.39682,656.27436 L 211.02669,606.64061 L 211.02669,606.64061"
         id="wisconsin"
         style="fill:#d0113f" />
      <path
         d="M 219.63419,547.72936 L 222.54582,547.72936 C 223.6137,547.72936 224.90857,547.86686 225.32857,548.82561 L 225.42669,548.82561 L 226.46182,545.56686 L 226.36419,545.56686 C 225.94369,545.73061 225.42669,545.75686 224.87582,545.75686 L 211.99744,545.75686 C 211.57757,545.70311 211.15669,545.70311 210.76794,545.56686 L 210.67182,545.56686 L 209.53894,548.82561 L 209.63569,548.82561 C 210.63907,548.03186 212.09507,547.72936 213.48669,547.72936 L 216.33344,547.72936 L 216.33344,559.95186 C 216.33344,561.18436 216.52719,563.18311 214.91007,563.70561 L 214.91007,563.78686 L 221.31632,563.78686 L 221.31632,563.70561 C 219.60094,562.85686 219.63419,561.78686 219.63419,560.22436 L 219.63419,547.72936 M 250.21619,554.99311 L 250.21619,559.95186 C 250.21619,561.18436 250.44332,563.18311 248.79282,563.70561 L 248.79282,563.78686 L 254.97357,563.78686 L 254.97357,563.70561 C 253.32319,563.18311 253.51694,561.18436 253.51694,559.95186 L 253.51694,549.59436 C 253.51694,548.35936 253.32319,546.35936 254.97357,545.83936 L 254.97357,545.75686 L 248.79282,545.75686 L 248.79282,545.83936 C 250.44332,546.35936 250.21619,548.35936 250.21619,549.62186 L 250.21619,553.01811 L 238.53557,553.01811 L 238.53557,549.62186 C 238.53557,548.35936 238.34119,546.35936 239.95882,545.83936 L 239.95882,545.75686 L 233.81144,545.75686 L 233.81144,545.83936 C 235.46182,546.35936 235.23482,548.35936 235.23482,549.59436 L 235.23482,559.95186 C 235.23482,561.18436 235.42857,563.18311 233.81144,563.70561 L 233.81144,563.78686 L 239.95882,563.78686 L 239.95882,563.70561 C 238.34119,563.18311 238.53557,561.18436 238.53557,559.95186 L 238.53557,554.99311 L 250.21619,554.99311 L 250.21619,554.99311 M 269.28019,554.99311 L 271.67519,554.99311 C 272.67857,554.99311 274.03707,554.96311 274.55457,555.75936 L 274.65132,555.75936 L 274.65132,552.85436 L 274.55457,552.85436 C 274.16694,553.01811 273.64932,553.01811 273.13119,553.01811 L 269.28019,553.01811 L 269.28019,547.92186 C 270.31682,547.75936 271.44819,547.72936 272.58094,547.72936 C 274.06869,547.72936 275.39594,547.83936 276.39932,548.82561 L 276.49545,548.82561 L 276.49545,545.62061 L 276.39932,545.62061 C 275.97844,545.81311 275.42857,545.75686 274.87832,545.75686 L 264.52432,545.75686 L 264.52432,545.83936 C 266.17469,546.35936 265.98032,548.35936 265.98032,549.62186 L 265.98032,559.95186 C 265.98032,561.18436 266.17469,563.21061 264.52432,563.70561 L 264.52432,563.78686 L 278.01644,563.78686 L 279.47307,560.19811 L 279.37545,560.19811 C 277.7577,561.40436 275.52532,561.97811 273.39057,561.81436 L 269.28019,561.48436 L 269.28019,554.99311 M 319.33107,563.78686 L 324.08857,563.78686 L 324.08857,563.70561 C 322.43857,563.18311 322.63232,561.18436 322.63232,559.95186 L 322.63232,549.62186 C 322.63232,548.35936 322.43857,546.35936 324.08857,545.83936 L 324.05607,545.75686 L 317.90857,545.75686 L 317.90857,545.83936 C 319.52607,546.35936 319.33107,548.35936 319.33107,549.59436 L 319.33107,557.84186 C 319.33107,558.82811 319.36482,559.51186 318.65107,560.33436 C 317.58482,561.62311 315.73982,562.25311 313.92732,562.25311 C 310.59482,562.25311 308.78357,560.55436 308.78357,556.90936 L 308.78357,549.59436 C 308.78357,548.35936 308.58982,546.35936 310.20607,545.83936 L 310.20607,545.75686 L 304.05982,545.75686 L 304.05982,545.83936 C 305.70982,546.35936 305.48232,548.35936 305.48232,549.59436 L 305.48232,556.90936 C 305.48232,558.88186 305.41732,560.71811 307.13357,562.30686 C 308.58982,563.65061 310.85357,564.22561 312.98982,564.22561 C 315.25482,564.22561 317.90857,563.56686 319.33107,561.97811 L 319.33107,563.78686 M 337.51982,549.62186 L 348.61857,561.54061 C 350.04232,563.10311 351.04482,564.00686 353.34232,564.66311 L 353.34232,549.29186 C 353.34232,547.75936 353.34232,546.66311 355.02482,545.83936 L 355.02482,545.75686 L 349.32982,545.75686 L 349.32982,545.83936 C 351.04482,546.66311 351.01232,547.75936 351.01232,549.29186 L 351.01232,559.67811 L 339.16982,547.01686 L 338.71732,546.46936 C 338.48982,546.25061 338.36107,546.11311 338.23107,545.78436 L 338.23107,545.75686 L 333.50732,545.75686 L 333.50732,545.83936 C 335.19107,546.66311 335.19107,547.75936 335.19107,549.29186 L 335.19107,560.22436 C 335.19107,561.76061 335.19107,562.85686 333.47607,563.70561 L 333.47607,563.78686 L 339.20232,563.78686 L 339.20232,563.70561 C 337.48857,562.85686 337.51982,561.76061 337.51982,560.22436 L 337.51982,549.62186 M 365.44982,559.95186 C 365.44982,561.18436 365.64357,563.21061 364.02607,563.70561 L 364.02607,563.78686 L 370.17357,563.78686 L 370.17357,563.70561 C 368.55607,563.18311 368.74982,561.18436 368.74982,559.95186 L 368.74982,549.62186 C 368.74982,548.38936 368.55607,546.35936 370.17357,545.83936 L 370.17357,545.75686 L 364.02607,545.75686 L 364.02607,545.83936 C 365.67607,546.35936 365.44982,548.35936 365.44982,549.62186 L 365.44982,559.95186 M 388.55357,560.55436 L 383.40857,548.63561 C 383.14982,548.03186 382.53607,546.68936 382.53607,546.08686 L 382.56732,545.75686 L 377.84357,545.75686 L 377.84357,545.83936 C 379.26732,546.77061 379.75232,548.35936 380.36732,549.75811 L 385.25357,560.96436 C 386.19232,563.12936 386.93482,563.34936 389.20107,564.60936 L 397.74357,545.75686 L 392.92107,545.75686 L 392.92107,545.83936 C 394.92857,546.52311 393.82732,548.77186 392.95482,550.71811 L 388.55357,560.55436 L 388.55357,560.55436 M 411.00982,554.99311 L 413.40357,554.99311 C 414.40732,554.99311 415.76607,554.96311 416.28482,555.75936 L 416.38107,555.75936 L 416.38107,552.85436 L 416.28482,552.85436 C 415.89607,553.01811 415.37732,553.01811 414.85982,553.01811 L 411.00982,553.01811 L 411.00982,547.92186 C 412.04482,547.75936 413.17732,547.72936 414.31107,547.72936 C 415.79857,547.72936 417.12607,547.83936 418.12732,548.82561 L 418.22607,548.82561 L 418.22607,545.62061 L 418.12732,545.62061 C 417.70732,545.81311 417.15732,545.75686 416.60857,545.75686 L 406.25357,545.75686 L 406.25357,545.83936 C 407.90357,546.35936 407.70857,548.35936 407.70857,549.62186 L 407.70857,559.95186 C 407.70857,561.18436 407.90357,563.21061 406.25357,563.70561 L 406.25357,563.78686 L 419.74607,563.78686 L 421.20232,560.19811 L 421.10482,560.19811 C 419.48732,561.40436 417.25482,561.97811 415.11857,561.81436 L 411.00982,561.48436 L 411.00982,554.99311 M 430.09857,545.75686 L 430.09857,545.83936 C 431.74732,546.35936 431.52107,548.35936 431.52107,549.62186 L 431.52107,559.95186 C 431.52107,561.18436 431.74732,563.21061 430.09857,563.70561 L 430.09857,563.78686 L 436.27732,563.78686 L 436.27732,563.70561 C 434.62857,563.21061 434.82232,561.21061 434.82232,559.95186 L 434.82232,547.67561 C 435.56607,547.56561 436.27732,547.48311 437.02232,547.45561 C 439.18982,547.37311 441.19607,548.52561 441.19607,550.49811 C 441.19607,553.07436 438.18607,554.08686 435.59857,554.41686 L 438.57482,558.27936 L 442.52232,562.41686 C 443.49232,563.43061 444.56107,563.78686 446.27607,563.78686 L 449.25357,563.78686 C 447.40857,562.80061 445.36982,561.37686 444.00982,559.95186 L 439.35232,554.99311 C 442.00482,554.47061 444.49607,552.58061 444.49607,550.16811 C 444.49607,547.67561 442.13357,545.75686 437.79857,545.75686 L 430.09857,545.75686 L 430.09857,545.75686 M 467.27357,545.92311 C 465.72107,545.51061 464.06982,545.31936 462.45232,545.31936 C 458.50482,545.31936 454.32982,546.63311 454.32982,550.08561 C 454.32982,555.89561 465.46232,555.12936 465.46232,559.40186 C 465.46232,561.32061 462.67857,562.25311 460.83357,562.25311 C 458.31107,562.25311 455.65732,561.37686 453.74857,559.97811 L 454.68607,563.40311 C 456.53107,563.97936 458.50482,564.22561 460.47857,564.22561 C 465.52607,564.22561 469.15107,561.48436 469.15107,558.55186 C 469.15107,553.48436 458.01857,553.54061 458.01857,549.78561 C 458.01857,547.89561 460.34982,547.29311 462.19357,547.29311 C 464.00607,547.29311 466.01107,547.92186 467.27357,549.01811 L 467.27357,545.92311 M 479.98732,559.95186 C 479.98732,561.18436 480.18107,563.21061 478.56357,563.70561 L 478.56357,563.78686 L 484.71107,563.78686 L 484.71107,563.70561 C 483.09232,563.18311 483.28732,561.18436 483.28732,559.95186 L 483.28732,549.62186 C 483.28732,548.38936 483.09232,546.35936 484.71107,545.83936 L 484.71107,545.75686 L 478.56357,545.75686 L 478.56357,545.83936 C 480.21232,546.35936 479.98732,548.35936 479.98732,549.62186 L 479.98732,559.95186 M 501.79232,547.72936 L 504.70357,547.72936 C 505.77232,547.72936 507.06607,547.86686 507.48732,548.82561 L 507.58357,548.82561 L 508.61982,545.56686 L 508.52232,545.56686 C 508.10232,545.73061 507.58357,545.75686 507.03357,545.75686 L 494.15607,545.75686 C 493.73607,545.70311 493.31482,545.70311 492.92607,545.56686 L 492.82982,545.56686 L 491.69732,548.82561 L 491.79357,548.82561 C 492.79732,548.03186 494.25357,547.72936 495.64357,547.72936 L 498.49107,547.72936 L 498.49107,559.95186 C 498.49107,561.18436 498.68607,563.18311 497.06857,563.70561 L 497.06857,563.78686 L 503.47482,563.78686 L 503.47482,563.70561 C 501.75982,562.85686 501.79232,561.78686 501.79232,560.22436 L 501.79232,547.72936 M 525.61232,555.89561 L 533.57232,545.75686 L 527.90982,545.75686 L 527.90982,545.83936 C 529.72107,546.57936 528.97732,547.89561 528.42732,548.57936 L 524.41482,553.67686 L 519.23732,546.52311 C 518.81732,545.94936 517.84607,545.75686 516.81107,545.75686 L 513.86607,545.75686 C 515.41857,546.46936 516.06607,547.37311 516.93982,548.57936 L 522.31107,555.89561 L 522.31107,559.95186 C 522.31107,561.23811 522.53857,563.02061 520.95232,563.70561 L 520.95232,563.78686 L 527.26232,563.78686 L 527.26232,563.70561 C 525.61232,562.69061 525.61232,561.87061 525.61232,560.22436 L 525.61232,555.89561"
         id="the_university" />
      <path
         d="M 272.10394,691.40916 L 266.54919,680.45461 C 266.37095,680.10549 266.13469,679.73436 266.13469,679.33549 L 266.13469,679.31199 L 260.96382,679.31199 L 260.96382,679.38423 C 262.32357,680.00686 261.99894,681.00049 261.87932,681.69436 L 260.19719,692.10447 C 259.95982,693.44676 259.7817,694.66307 258.54194,695.58299 L 258.54194,695.65672 L 263.35882,695.65672 L 263.35882,695.58299 C 261.9692,695.06054 262.17419,693.96679 262.41157,692.45311 L 264.09557,681.77049 L 269.71082,692.97314 C 270.41882,694.36571 270.83195,695.0371 272.31144,695.98192 L 278.92957,681.74561 L 280.61169,693.72069 C 280.61169,694.56541 280.43644,695.31053 279.40132,695.58299 L 279.40132,695.65672 L 285.10357,695.65672 L 285.10357,695.58299 C 283.92232,694.88817 283.77357,694.21679 283.59732,693.0493 L 281.64682,680.85199 C 281.64682,680.27836 281.85482,679.55811 282.56295,679.38423 L 282.56295,679.31199 L 277.45007,679.31199 L 277.45007,679.33549 C 277.45007,679.85549 277.24545,680.35449 277.00869,680.87698 L 272.10394,691.40916 L 272.10394,691.40916 M 313.27357,687.68309 L 307.45232,687.68309 L 310.37732,681.42336 L 313.27357,687.68309 L 313.27357,687.68309 z M 314.12982,689.52196 L 315.72732,693.02537 C 316.52232,694.76317 316.75982,695.0371 315.31107,695.58299 L 315.31107,695.65672 L 321.36857,695.65672 L 321.36857,695.58299 C 319.68482,694.86326 319.15232,693.47166 318.47357,692.05565 L 312.32857,679.31199 L 307.65982,679.31199 L 307.65982,679.38423 C 309.07857,679.75824 308.51482,680.80074 308.10232,681.69436 L 303.16857,692.05565 C 302.51857,693.47166 302.01607,694.86326 300.30232,695.58299 L 300.30232,695.65672 L 305.73857,695.65672 L 305.73857,695.58299 C 304.32107,695.13671 304.52857,694.41697 305.14857,693.02537 L 306.68357,689.52196 L 314.12982,689.52196 L 314.12982,689.52196 M 341.88357,681.37211 C 342.76982,681.19924 343.65607,681.09811 344.54232,681.09811 C 349.47732,681.09811 352.37232,683.28561 352.37232,687.63426 C 352.37232,691.93162 348.44357,693.86912 344.04232,693.86912 C 343.30232,693.86912 342.59482,693.81835 341.88357,693.69676 L 341.88357,681.37211 z M 338.87107,692.08055 C 338.87107,693.5454 339.04732,694.73925 337.56982,695.58299 L 337.56982,695.65672 L 344.66232,695.65672 C 351.28107,695.65672 355.74107,692.22947 355.74107,687.33446 C 355.74107,682.39061 351.54482,679.31199 344.80857,679.31199 L 337.56982,679.31199 L 337.56982,679.38423 C 339.07607,679.75824 338.87107,681.57173 338.87107,682.71436 L 338.87107,692.08055 M 374.07857,692.18065 C 374.07857,693.29832 374.25607,695.13671 372.77482,695.58299 L 372.77482,695.65672 L 378.39232,695.65672 L 378.39232,695.58299 C 376.91482,695.1118 377.09107,693.29832 377.09107,692.18065 L 377.09107,682.81299 C 377.09107,681.69436 376.91482,679.85549 378.39232,679.38423 L 378.39232,679.31199 L 372.77482,679.31199 L 372.77482,679.38423 C 374.28482,679.85549 374.07857,681.67036 374.07857,682.81299 L 374.07857,692.18065 M 407.08482,679.46049 C 405.66732,679.08686 404.16107,678.91311 402.68357,678.91311 C 399.07732,678.91311 395.26607,680.10549 395.26607,683.23436 C 395.26607,688.50291 405.42982,687.80809 405.42982,691.68162 C 405.42982,693.42332 402.88982,694.26805 401.20482,694.26805 C 398.90107,694.26805 396.47732,693.47166 394.73482,692.20457 L 395.59107,695.31053 C 397.27607,695.83299 399.07732,696.05418 400.88107,696.05418 C 405.48982,696.05418 408.79982,693.57176 408.79982,690.91307 C 408.79982,686.31541 398.63482,686.36669 398.63482,682.96186 C 398.63482,681.24799 400.76232,680.70061 402.44607,680.70061 C 404.10107,680.70061 405.93357,681.27436 407.08482,682.26561 L 407.08482,679.46049 M 436.42732,680.67674 C 441.09607,680.67674 443.84482,684.17919 443.84482,687.80809 C 443.84482,691.50926 440.97857,694.26805 436.48732,694.26805 C 431.84857,694.26805 428.92232,690.68797 428.92232,687.2119 C 428.92232,683.45949 431.84857,680.67674 436.42732,680.67674 L 436.42732,680.67674 z M 436.63482,678.88911 C 430.42982,678.76411 425.55482,682.71436 425.55482,687.43456 C 425.55482,692.52684 430.48857,696.05418 436.33982,696.05418 C 442.21982,696.05418 447.21232,692.37791 447.21232,687.30956 C 447.21232,682.83936 442.83982,678.86186 436.63482,678.88911 L 436.63482,678.88911 M 467.66482,682.81299 L 477.80107,693.62059 C 479.10107,695.0371 480.01607,695.85692 482.11482,696.45311 L 482.11482,682.51411 C 482.11482,681.12299 482.11482,680.12936 483.64982,679.38423 L 483.64982,679.31199 L 478.44982,679.31199 L 478.44982,679.38423 C 480.01607,680.12936 479.98732,681.12299 479.98732,682.51411 L 479.98732,691.93162 L 469.17232,680.45461 L 468.75857,679.95561 C 468.55232,679.75824 468.43482,679.63423 468.31607,679.33549 L 468.31607,679.31199 L 464.00232,679.31199 L 464.00232,679.38423 C 465.53857,680.12936 465.53857,681.12299 465.53857,682.51411 L 465.53857,692.42919 C 465.53857,693.81835 465.53857,694.812 463.97232,695.58299 L 463.97232,695.65672 L 469.20232,695.65672 L 469.20232,695.58299 C 467.63607,694.812 467.66482,693.81835 467.66482,692.42919 L 467.66482,682.81299"
         id="madison" />
      <path
         d="M 357.74357,584.05561 C 358.99732,581.25923 362.40982,576.89449 366.19607,576.89449 C 366.95357,576.89449 367.91232,577.07561 368.20232,577.61424 C 368.58232,578.33299 368.24357,579.46286 367.84232,580.36186 C 367.22107,581.74561 365.92857,583.56936 364.71982,584.82661 C 363.17607,586.39211 361.39357,587.36574 359.42857,587.36574 C 357.12982,587.36574 356.86982,586.00586 357.74357,584.05561 L 357.74357,584.05561 z M 370.45482,580.97699 C 371.90357,577.74174 370.43982,575.68799 366.96232,575.68799 C 364.60607,575.68799 362.22482,576.43311 359.90107,578.05174 C 357.87857,579.43549 356.02732,581.43799 355.17607,583.33786 C 353.70482,586.62299 355.24357,588.57424 358.74857,588.57424 C 363.37732,588.57424 368.56857,585.18549 370.45482,580.97699 L 370.45482,580.97699 M 381.88357,575.94673 L 383.21982,573.84324 C 383.73357,573.07173 384.14607,572.27536 384.98982,571.58199 C 385.57107,571.09686 386.30482,570.71061 386.97732,570.71061 C 388.68982,570.71061 387.39857,572.27536 389.08232,572.27536 C 389.75482,572.27536 390.54482,571.89211 390.83107,571.25061 C 391.38357,570.01686 389.25482,569.76061 388.27357,569.76061 C 386.53482,569.76061 384.41107,570.55686 382.76482,571.78949 C 381.09232,573.02049 380.39357,574.20161 379.33107,575.94673 L 376.77857,575.94673 L 376.32232,576.71674 L 378.81857,576.71674 L 371.59857,588.05961 L 370.47357,589.75286 C 370.01107,590.47161 369.27607,591.55074 368.47982,592.14061 C 367.75607,592.62698 366.71857,593.06448 365.96107,593.06448 C 364.08232,593.06448 364.99607,591.08936 363.14482,591.08936 C 362.49857,591.08936 361.72232,591.31836 361.41232,592.01174 C 360.73357,593.52536 363.11982,593.96286 364.35357,593.96286 C 366.40107,593.96286 368.96482,593.37211 370.89982,591.80661 C 372.83857,590.24174 373.89982,588.44436 375.09232,586.59661 L 381.37107,576.71674 L 384.28732,576.71674 L 384.74482,575.94673 L 381.88357,575.94673 L 381.88357,575.94673"
         id="of" />
      <g
         id="text_lines">
        <path
           d="M 158.20107,580.59961 L 347.03107,580.59961 L 347.03107,578.7168 L 158.20107,578.7168 L 158.20107,580.59961 z"
           id="line_1" />
        <path
           d="M 392.07232,580.59961 L 584.65607,580.59961 L 584.65607,578.7168 L 392.07232,578.7168 L 392.07232,580.59961 z"
           id="line_2" />
        <path
           d="M 158.20107,668.15823 L 584.64107,668.15823 L 584.64107,666.27542 L 158.20107,666.27542 L 158.20107,668.15823 z"
           id="line_3" />
      </g>
    </g>
    <g
       id="shield">
      <g
         transform="translate(158.20107,282.55697)"
         id="structures">
        <path
           d="M 196.21875,64.65625 C 195.86331,64.65058 195.48917,64.66813 195.125,64.6875 C 190.75495,64.91995 185.77283,67.01467 181.4375,71.03125 C 144.41696,105.32993 169.464,191.49653 213.25,218.5625 C 257.03602,191.49653 282.05179,105.32993 245.03125,71.03125 C 239.25082,65.67581 232.31625,63.73875 227.21875,65.0625 C 221.81625,66.465 217.28125,67.4225 213.25,67.53125 C 209.21875,67.4225 204.6525,66.465 199.25,65.0625 C 198.29422,64.8143 197.28507,64.67326 196.21875,64.65625 z M 211.9375,84.65625 L 213.9375,84.65625 C 213.9375,84.656249 228.41874,153.92499 229.5,159.09375 C 232.21625,147.31251 242.72499,101.78249 242.71875,101.8125 C 242.9825,100.17125 242.755,98.98501 242.03125,98.25 C 240.905,97.107499 238.89501,97.3725 238.875,97.375 L 238.15625,97.5 L 238.15625,92.8125 L 253.65625,92.8125 L 253.65625,96.9375 L 253.65625,97.625 L 253,97.5625 C 252.88375,97.552499 250.15498,97.31499 249.5,99.96875 L 228.53125,194.78125 L 226.21875,194.78125 C 226.21875,194.78126 212.97374,126.52876 212.78125,125.53125 L 212.6875,125.53125 C 212.5275,126.57625 202.12501,194.78126 202.125,194.78125 L 199.46875,194.78125 C 199.46875,194.78126 177.41251,100.06124 177.40625,100.03125 C 177.0125,97.843749 174.48124,97.3925 174.375,97.375 L 173.875,97.28125 L 173.875,92.8125 L 191.3125,92.8125 L 191.3125,96.59375 L 191.3125,97.3125 L 190.59375,97.21875 C 190.58,97.216249 189.17124,97.02249 188.21875,97.9375 C 187.5575,98.571249 187.25001,99.60125 187.25,100.9375 C 187.25,101.205 187.255,101.48875 187.28125,101.78125 C 187.28125,101.78125 199.18501,152.7725 200.5,158.40625 C 201.4075,152.55876 211.9375,84.65626 211.9375,84.65625 z"
           id="crest"
           style="fill:#d0113f" />
        <path
           d="M 212.5625,0.375 C 211.43659,0.38895379 209.11825,0.5872856 206.75,1.9375 C 204.38175,3.2877144 201.96541,5.7700608 200.65625,10.46875 C 200.61045,10.651062 200.43676,10.771308 200.25,10.75 C 197.46766,10.49704 195.3178,11.199982 193.71875,12.59375 C 192.1197,13.987518 191.06998,16.083913 190.53125,18.6875 C 190.51598,18.787602 190.46088,18.877275 190.37849,18.936131 C 190.29609,18.994987 190.19339,19.018022 190.09375,19 C 180.59306,17.512426 172.35908,19.487958 165.34375,24.125 C 158.32842,28.762042 152.53065,36.087032 148,45.3125 C 138.9387,63.763437 134.94471,89.816024 136.21875,117.03125 C 137.49279,144.24648 144.02836,172.60386 155.96875,195.71875 C 167.90914,218.83364 185.23826,236.66368 208.09375,242.90625 C 208.18872,242.93713 208.26746,243.00462 208.3125,243.09375 C 209.55463,245.18103 211.09705,246.9937 213.25,247.96875 C 215.40041,246.99422 216.91279,245.18325 218.15625,243.09375 C 218.20129,243.00462 218.28003,242.93713 218.375,242.90625 C 241.23049,236.66368 258.55961,218.83364 270.5,195.71875 C 282.44039,172.60386 288.97596,144.24648 290.25,117.03125 C 291.52404,89.816024 287.53005,63.763437 278.46875,45.3125 C 273.9381,36.087032 268.14033,28.762042 261.125,24.125 C 254.10967,19.487958 245.87569,17.512426 236.375,19 C 236.27536,19.018022 236.17266,18.994987 236.09026,18.936131 C 236.00787,18.877275 235.95277,18.787602 235.9375,18.6875 C 235.39877,16.083913 234.34905,13.987517 232.75,12.59375 C 231.15095,11.199983 229.00109,10.49704 226.21875,10.75 C 226.03199,10.771308 225.8583,10.651062 225.8125,10.46875 C 224.3163,5.0987565 221.38543,2.6298407 218.71875,1.4375 C 217.38541,0.84132967 216.13982,0.55176666 215.15625,0.4375 C 214.17268,0.32323334 213.47132,0.36815852 213.25,0.375 C 213.16585,0.37239875 212.89171,0.37091996 212.5625,0.375 z M 196.21875,68.15625 C 197.18805,68.17342 198.14077,68.300105 199.03125,68.53125 C 204.35121,69.913541 209.42638,70.773728 213.25,70.875 C 217.07356,70.77373 222.1172,69.91363 227.4375,68.53125 C 232.20693,67.293244 238.14428,69.228037 243.375,73.5625 C 257.65621,85.396549 260.0625,106.24194 260.0625,119.28125 C 259.79163,155.8592 244.02177,193.51859 213.46875,214.6875 C 213.33802,214.78137 213.16198,214.78137 213.03125,214.6875 C 182.47833,193.51865 166.67713,155.85941 166.40625,119.28125 C 166.40625,106.24194 168.81254,85.396549 183.09375,73.5625 C 187.01629,70.312069 191.32028,68.407741 195.25,68.1875 C 195.56732,68.169716 195.88668,68.150367 196.21875,68.15625 z"
           id="color"
           style="fill:#a88a5b" />
        <path
           d="M 213.23438,0.015625 C 210.66571,0.015209345 202.85024,1.1547008 200.28125,10.375 C 194.5549,9.8543802 191.25729,13.30383 190.15625,18.625 C 113.48678,6.6204493 116.06334,218.17039 208,243.28125 C 209.29388,245.45549 210.90094,247.40747 213.25,248.40625 C 215.59906,247.40747 217.17486,245.45549 218.46875,243.28125 C 310.40541,218.17039 312.98197,6.6204493 236.3125,18.625 C 235.21146,13.30383 231.91386,9.8543802 226.1875,10.375 C 223.61574,1.1447464 215.80304,0.016040655 213.23438,0.015625 z M 213.25,1.625 C 219.91089,1.625 223.4305,6.17937 225.03125,12.25 C 230.28735,11.45534 234.24799,13.732121 234.8125,19.3125 C 234.30375,19.44375 233.80875,19.58625 233.3125,19.75 C 230.7281,10.08915 218.92116,13.707311 216.40625,23.0625 C 213.89135,32.41769 213.08999,51.622501 217.5625,58.78125 C 216.12159,58.66336 214.68724,58.5625 213.25,58.5625 C 211.81276,58.5625 210.34716,58.66336 208.90625,58.78125 C 213.37875,51.622501 212.5774,32.41769 210.0625,23.0625 C 207.5476,13.707311 195.74065,10.08915 193.15625,19.75 C 192.66,19.58625 192.165,19.44375 191.65625,19.3125 C 192.22077,13.732121 196.1814,11.45534 201.4375,12.25 C 203.03826,6.17937 206.58911,1.625 213.25,1.625 z M 208.875,4.59375 C 205.22653,4.9250884 204.17536,8.42332 203.46875,11.53125 C 208.85335,12.37115 211.26551,16.88391 213.25,21.40625 C 215.23449,16.88391 217.6154,12.37115 223,11.53125 C 222.29339,8.42332 221.24223,4.9250887 217.59375,4.59375 C 215.32639,4.3878386 213.88439,6.0025 213.25,6.78125 C 212.61562,6.0025 211.14236,4.3878383 208.875,4.59375 z M 213.25,9.3125 C 216.02149,6.23498 219.33097,5.3560701 220.8125,10.15625 C 217.71375,11.005 215.13876,13.358749 213.25,17 C 211.36125,13.358749 208.755,11.005 205.65625,10.15625 C 207.05804,5.5968668 210.51499,6.5557799 213.25,9.3125 z M 200.03125,15.9375 C 203.46198,16.006201 207.24934,19.688481 208.3125,23.65625 C 211.36219,35.03785 211.015,54.00625 206.4375,58.96875 C 198.075,59.9425 191.93375,62.1325 186,66 C 182.83,64.378747 163.81124,54.12375 160.59375,42.875 C 168.10034,31.25186 183.37698,22.1991 193.15625,34.625 C 190.89825,34.635672 188.48504,34.50487 186.28125,34.5625 C 183.11874,34.562499 180.625,39.4125 180.625,45.59375 C 180.62499,51.66125 183.01625,56.41875 186.09375,56.59375 C 191.8125,59.713751 202.30375,58.425 204.1875,55.875 C 209.59,48.55875 209.875,38.47625 204.90625,30.21875 C 202.155,25.646251 199.5125,22.32625 194.9375,20.40625 C 196.04346,17.158596 197.97281,15.896279 200.03125,15.9375 z M 226.4375,15.9375 C 228.49594,15.896279 230.42529,17.158596 231.53125,20.40625 C 226.95625,22.32625 224.31376,25.646251 221.5625,30.21875 C 216.59375,38.47625 216.87875,48.55875 222.28125,55.875 C 224.165,58.425 234.65625,59.713751 240.375,56.59375 C 243.4525,56.41875 245.84375,51.66125 245.84375,45.59375 C 245.84375,39.4125 243.35,34.562499 240.1875,34.5625 C 237.98371,34.50487 235.57049,34.635672 233.3125,34.625 C 243.09177,22.1991 258.36842,31.25186 265.875,42.875 C 262.65751,54.12375 243.63874,64.378747 240.46875,66 C 234.535,62.1325 228.39376,59.9425 220.03125,58.96875 C 215.45375,54.00625 215.10655,35.03785 218.15625,23.65625 C 219.21941,19.688481 223.00677,16.006201 226.4375,15.9375 z M 184.15625,19.53125 C 186.34455,19.529572 188.52509,19.795583 190.6875,20.375 C 196.57384,21.95224 200.53,25.3675 203.84375,30.875 C 208.55125,38.6975 208.28875,48.2175 203.1875,55.125 C 202.09,56.610001 195.5325,58.1025 189.8125,56.46875 C 200.75134,52.832812 198.60162,39.2455 193.46875,32.9375 C 189.32205,27.84145 183.85257,25.90282 176.6875,28.0625 C 169.85919,30.12067 163.98,35.185 159.46875,42.03125 L 153.625,38.125 C 160.59314,27.524546 172.33944,19.540311 184.15625,19.53125 z M 242.3125,19.53125 C 254.12931,19.540311 265.87561,27.524546 272.84375,38.125 L 267,42.03125 C 262.48875,35.185 256.60955,30.12067 249.78125,28.0625 C 242.61618,25.90282 237.14669,27.84145 233,32.9375 C 227.86713,39.2455 225.7174,52.832812 236.65625,56.46875 C 230.93625,58.1025 224.37876,56.610001 223.28125,55.125 C 218.18,48.2175 217.9175,38.6975 222.625,30.875 C 225.93875,25.3675 229.8949,21.95224 235.78125,20.375 C 237.94366,19.795583 240.1242,19.529572 242.3125,19.53125 z M 189.96875,35.84375 C 191.87625,35.862499 193.56625,35.87 193.96875,35.875 C 197.53816,42.542461 198.06196,52.40051 189.75,55.1875 C 193.47017,49.468189 193.63119,41.60162 189.96875,35.84375 z M 236.5,35.84375 C 232.83756,41.60162 232.99857,49.468189 236.71875,55.1875 C 228.40679,52.40051 228.93058,42.542461 232.5,35.875 C 232.9025,35.87 234.59249,35.862499 236.5,35.84375 z M 186.4375,36.1875 C 188.82871,36.240712 191.25395,39.4269 191.3125,45.59375 C 191.4296,57.92745 182.2443,58.35315 181.875,45.59375 C 181.69035,39.21405 184.04629,36.134288 186.4375,36.1875 z M 240.03125,36.1875 C 242.42246,36.134288 244.7784,39.21405 244.59375,45.59375 C 244.22445,58.35315 235.03914,57.92745 235.15625,45.59375 C 235.2148,39.4269 237.64004,36.240712 240.03125,36.1875 z M 186.71875,39.125 C 186.60177,39.11846 186.49402,39.135255 186.375,39.15625 C 185.50942,39.308942 184.60926,40.199509 183.78125,42.21875 C 182.24402,43.41196 182.34434,47.15357 183.8125,48.5625 C 186.428,55.459818 189.96875,49.92431 189.96875,45.3125 C 189.96875,42.325606 188.47344,39.223101 186.71875,39.125 z M 152.9375,39.15625 C 154.4175,40.150002 157.37875,42.1325 158.8125,43.09375 C 151.56625,54.677501 147.2575,71.30125 145.59375,89.46875 L 138.40625,88.875 C 140.13499,68.546247 145.11,51.3525 152.9375,39.15625 z M 239.5625,39.15625 C 237.88096,39.426655 236.5,42.416119 236.5,45.3125 C 236.5,49.92431 240.04076,55.459818 242.65625,48.5625 C 244.12441,47.15357 244.22472,43.41196 242.6875,42.21875 C 241.69389,39.795661 240.57142,38.994007 239.5625,39.15625 z M 273.53125,39.15625 C 281.35875,51.3525 286.33374,68.546247 288.0625,88.875 L 280.875,89.46875 C 279.21125,71.30125 274.9025,54.677501 267.65625,43.09375 C 269.09,42.1325 272.05125,40.150002 273.53125,39.15625 z M 186.6875,40.03125 C 187.24545,40.041294 187.78547,40.61851 188.21875,41.71875 L 185.0625,41.71875 C 185.53869,40.558334 186.12955,40.021206 186.6875,40.03125 z M 239.78125,40.03125 C 240.3392,40.021206 240.93006,40.558334 241.40625,41.71875 L 238.25,41.71875 C 238.68328,40.61851 239.2233,40.041294 239.78125,40.03125 z M 185.90625,43.40625 C 186.6375,43.400001 187.5775,43.41125 188.03125,43.40625 C 188.41434,44.726649 188.21397,45.99388 187.96875,47.3125 C 187.52625,47.315 186.61875,47.33875 185.90625,47.34375 C 186.32427,46.02605 186.16956,44.72565 185.90625,43.40625 z M 238.4375,43.40625 C 238.89125,43.41125 239.83125,43.400001 240.5625,43.40625 C 240.29919,44.72565 240.14449,46.02605 240.5625,47.34375 C 239.85,47.33875 238.94251,47.315 238.5,47.3125 C 238.25478,45.99388 238.05442,44.726649 238.4375,43.40625 z M 159.6875,43.90625 C 163.2925,54.97375 180.2975,64.44875 184.84375,66.8125 C 173.22189,74.800583 170.01109,82.13219 165.3125,94.25 C 162.65375,94.099999 150.49375,93.22125 146.78125,89.84375 C 148.3825,71.80375 152.575,55.34 159.6875,43.90625 z M 266.78125,43.90625 C 273.89375,55.34 278.08626,71.80375 279.6875,89.84375 C 275.975,93.22125 263.81501,94.099999 261.15625,94.25 C 256.45766,82.13219 253.24686,74.800583 241.625,66.8125 C 246.17125,64.44875 263.17626,54.97375 266.78125,43.90625 z M 188.1875,49 C 187.13688,51.279178 186.11247,51.23984 185.125,49.03125 L 188.1875,49 z M 238.28125,49 L 241.34375,49.03125 C 240.35628,51.23984 239.33187,51.279178 238.28125,49 z M 213.25,59.90625 C 220.25101,59.90625 227.25609,61.138581 233.90625,63.875 C 231.43375,63.34375 229.03625,63.32125 226.90625,63.875 C 221.58625,65.255 217.12876,66.28125 213.25,66.28125 C 209.37124,66.28125 204.8825,65.255 199.5625,63.875 C 197.4325,63.32125 195.035,63.34375 192.5625,63.875 C 199.21265,61.138581 206.24899,59.90625 213.25,59.90625 z M 199.25,65.0625 C 204.66462,66.413275 209.21875,67.53125 213.25,67.53125 C 217.28125,67.53125 221.81625,66.464997 227.21875,65.0625 C 232.31625,63.73875 239.25082,65.675809 245.03125,71.03125 C 282.05179,105.32993 257.03602,191.49653 213.25,218.5625 C 169.464,191.49653 144.41696,105.32993 181.4375,71.03125 C 185.77283,67.014669 190.75787,64.960355 195.125,64.6875 C 196.52107,64.600274 197.90331,64.726542 199.25,65.0625 z M 195.3125,67.3125 C 191.22159,67.508908 186.79455,69.509818 182.5625,72.875 C 149.92838,98.824522 165.08521,185.85233 213.25,215.84375 C 261.41479,185.85233 276.54036,98.824522 243.90625,72.875 C 238.26352,68.38809 232.28499,66.372504 227.21875,67.6875 C 222.05125,69.03 216.97251,70 213.25,70 C 209.52749,70 204.40934,69.059665 199.25,67.6875 C 197.95548,67.343211 196.63687,67.248916 195.3125,67.3125 z M 198.9375,68.90625 C 204.28809,70.248788 209.38001,71.25 213.25,71.25 C 217.11999,71.25 222.19126,70.293747 227.53125,68.90625 C 232.135,67.71125 237.96,69.56375 243.125,73.84375 C 257.255,85.5525 259.6875,106.28875 259.6875,119.28125 C 259.41741,155.75325 243.6815,193.29028 213.25,214.375 C 182.8185,193.29028 167.05134,155.75325 166.78125,119.28125 C 166.78125,106.28875 169.21375,85.5525 183.34375,73.84375 C 187.2175,70.63375 191.45981,68.815006 195.28125,68.5625 C 196.51967,68.48067 197.74399,68.60678 198.9375,68.90625 z M 138.3125,90.125 C 139.8525,90.247498 144.08875,90.5775 145.46875,90.6875 C 143.72721,107.77345 145.38382,124.87422 147.625,141.8125 L 140.84375,144.03125 C 137.65086,126.21527 136.72314,108.63776 138.3125,90.125 z M 288.15625,90.125 C 289.74561,108.63776 288.81788,126.21527 285.625,144.03125 L 278.84375,141.8125 C 281.08493,124.87422 282.74154,107.77345 281,90.6875 C 282.38,90.5775 286.61624,90.247498 288.15625,90.125 z M 146.65625,91.3125 C 151.14625,94.438752 161.82625,95.285 164.9375,95.46875 C 157.36044,124.40336 165.16694,154.99553 178.09375,181.1875 C 177.795,181.59499 171.88625,189.50625 164.5625,189.9375 C 148.79025,159.5144 144.709,125.10925 146.65625,91.3125 z M 279.8125,91.3125 C 281.75975,125.10925 277.67851,159.5144 261.90625,189.9375 C 254.5825,189.50625 248.67374,181.59499 248.375,181.1875 C 261.30181,154.99553 269.10832,124.40336 261.53125,95.46875 C 264.6425,95.285 275.32251,94.438752 279.8125,91.3125 z M 154.375,110.28125 C 151.46443,110.44482 148.19391,112.25797 148.125,115.4375 C 148.47631,133.64808 152.0729,151.52865 157.46875,168.875 C 159.48599,175.35993 171.50649,169.98298 169.3125,163.90625 C 163.92315,148.97925 160.87546,133.16463 160.90625,117.28125 C 160.97625,113.48375 159.8425,110.80875 155.5625,110.3125 C 155.17047,110.26688 154.7908,110.25788 154.375,110.28125 z M 271.5,110.28125 C 271.29677,110.2867 271.10227,110.28969 270.90625,110.3125 C 266.62625,110.80875 265.49251,113.48375 265.5625,117.28125 C 265.59329,133.16463 262.54561,148.97925 257.15625,163.90625 C 254.96226,169.98298 266.98277,175.35993 269,168.875 C 274.39585,151.52865 277.99243,133.64808 278.34375,115.4375 C 278.26992,112.03086 274.54851,110.19953 271.5,110.28125 z M 154.53125,111.40625 C 160.50876,111.37979 159.74625,115.985 159.8125,120.34375 C 156.4625,118.41125 152.055,119.14875 149.5625,122.0625 C 149.425,119.8925 149.26565,117.68651 149.25,115.4375 C 149.23691,113.55526 151.47126,111.41979 154.53125,111.40625 z M 271.9375,111.40625 C 274.99749,111.41979 277.23185,113.55526 277.21875,115.4375 C 277.2031,117.68651 277.04376,119.8925 276.90625,122.0625 C 274.41375,119.14875 270.00626,118.41125 266.65625,120.34375 C 266.7225,115.985 265.96,111.37979 271.9375,111.40625 z M 155.15625,120.46875 C 155.5425,120.4525 155.915,120.4725 156.28125,120.5 C 156.28999,121.6775 156.29375,122.86375 156.34375,124.09375 C 155.97375,124.0575 155.6,124.05 155.21875,124.0625 C 155.16876,122.84 155.16625,121.64125 155.15625,120.46875 z M 271.3125,120.46875 C 271.3025,121.64125 271.29999,122.84 271.25,124.0625 C 270.86875,124.05 270.49499,124.0575 270.125,124.09375 C 270.175,122.86375 270.17875,121.6775 270.1875,120.5 C 270.55375,120.4725 270.92625,120.4525 271.3125,120.46875 z M 154.3125,120.5625 C 154.3225,121.735 154.35625,122.90375 154.40625,124.125 C 154.04876,124.185 153.6625,124.30625 153.28125,124.46875 C 153.22499,123.22875 153.20125,121.99875 153.1875,120.8125 C 153.53625,120.68875 153.90875,120.62125 154.3125,120.5625 z M 272.15625,120.5625 C 272.56,120.62125 272.93251,120.68875 273.28125,120.8125 C 273.2675,121.99875 273.24374,123.22875 273.1875,124.46875 C 272.80625,124.30625 272.42,124.185 272.0625,124.125 C 272.1125,122.90375 272.14626,121.735 272.15625,120.5625 z M 157.09375,120.59375 C 157.50874,120.6675 157.915,120.77625 158.28125,120.90625 C 158.2975,122.09625 158.325,123.2825 158.375,124.5 C 157.9975,124.3825 157.59875,124.29375 157.1875,124.21875 C 157.135,122.98375 157.10375,121.7775 157.09375,120.59375 z M 269.375,120.59375 C 269.365,121.7775 269.33376,122.98375 269.28125,124.21875 C 268.87,124.29375 268.47126,124.3825 268.09375,124.5 C 268.14375,123.2825 268.17126,122.09625 268.1875,120.90625 C 268.55375,120.77625 268.95999,120.6675 269.375,120.59375 z M 152.375,121.1875 C 152.39124,122.39 152.41,123.61625 152.46875,124.875 C 152.10749,125.0825 151.75125,125.3225 151.40625,125.59375 C 151.32874,124.3475 151.2825,123.15375 151.25,121.96875 C 151.58,121.685 151.9625,121.4125 152.375,121.1875 z M 274.09375,121.1875 C 274.50625,121.4125 274.88876,121.685 275.21875,121.96875 C 275.18625,123.15375 275.13999,124.3475 275.0625,125.59375 C 274.7175,125.3225 274.36124,125.0825 274,124.875 C 274.05875,123.61625 274.0775,122.39 274.09375,121.1875 z M 159.125,121.28125 C 159.39,121.42625 159.63125,121.57125 159.84375,121.75 L 160,125.1875 C 159.75626,125.0575 159.49875,124.92875 159.21875,124.8125 C 159.16625,123.61625 159.145,122.45125 159.125,121.28125 z M 267.34375,121.28125 C 267.32375,122.45125 267.30251,123.61625 267.25,124.8125 C 266.97,124.92875 266.71249,125.0575 266.46875,125.1875 L 266.625,121.75 C 266.8375,121.57125 267.07875,121.42625 267.34375,121.28125 z M 150.4375,122.75 C 150.47751,123.8975 150.54375,125.075 150.625,126.28125 C 150.38375,126.5125 150.15,126.75 149.9375,127 C 149.84626,125.92375 149.77,124.82625 149.6875,123.75 C 149.9075,123.43 150.14625,123.08875 150.4375,122.75 z M 276.03125,122.75 C 276.3225,123.08875 276.56126,123.43 276.78125,123.75 C 276.69875,124.82625 276.6225,125.92375 276.53125,127 C 276.31875,126.75 276.08501,126.5125 275.84375,126.28125 C 275.925,125.075 275.99124,123.8975 276.03125,122.75 z M 155.4375,125.46875 C 156.92676,125.35089 158.48483,125.76848 160.09375,126.59375 C 160.18625,127.73625 160.31875,128.865 160.4375,130 C 156.87625,128.54126 153.14,129.21 150.46875,132 C 150.34125,130.89 150.20375,129.775 150.09375,128.65625 C 151.7188,126.61737 153.52274,125.62029 155.4375,125.46875 z M 270.375,125.46875 C 272.53118,125.42945 274.56937,126.39083 276.375,128.65625 C 276.265,129.775 276.1275,130.89 276,132 C 273.32875,129.21 269.5925,128.54126 266.03125,130 C 266.15,128.865 266.28251,127.73625 266.375,126.59375 C 267.75407,125.88638 269.08129,125.49233 270.375,125.46875 z M 156.8125,130.40625 C 156.9475,131.70374 157.11125,133.03625 157.3125,134.4375 C 156.9025,134.435 156.51625,134.435 156.1875,134.46875 C 155.985,133.0675 155.82375,131.735 155.6875,130.4375 C 156.07751,130.4 156.46375,130.40125 156.8125,130.40625 z M 269.65625,130.40625 C 270.005,130.40125 270.39124,130.4 270.78125,130.4375 C 270.645,131.735 270.48374,133.0675 270.28125,134.46875 C 269.9525,134.435 269.56626,134.435 269.15625,134.4375 C 269.3575,133.03625 269.52126,131.70374 269.65625,130.40625 z M 157.65625,130.4375 C 158.05875,130.485 158.42625,130.56125 158.78125,130.65625 C 158.90124,131.9325 159.0475,133.2325 159.21875,134.5625 C 158.865,134.515 158.50875,134.49 158.15625,134.46875 C 157.955,133.07625 157.79125,131.7275 157.65625,130.4375 z M 268.8125,130.4375 C 268.6775,131.7275 268.51376,133.07625 268.3125,134.46875 C 267.96,134.49 267.60376,134.515 267.25,134.5625 C 267.42125,133.2325 267.56749,131.9325 267.6875,130.65625 C 268.0425,130.56125 268.41001,130.485 268.8125,130.4375 z M 154.875,130.5625 C 155.01375,131.8675 155.17,133.21625 155.375,134.625 C 155.06126,134.72 154.725,134.88625 154.34375,135.09375 C 154.12749,133.6525 153.9275,132.26875 153.78125,130.9375 C 154.12999,130.7775 154.50375,130.6475 154.875,130.5625 z M 271.59375,130.5625 C 271.965,130.6475 272.33874,130.7775 272.6875,130.9375 C 272.54125,132.26875 272.34125,133.6525 272.125,135.09375 C 271.74375,134.88625 271.40749,134.72 271.09375,134.625 C 271.29875,133.21625 271.45501,131.8675 271.59375,130.5625 z M 159.65625,130.9375 C 159.97249,131.05499 160.27375,131.17625 160.5625,131.3125 C 160.61999,131.775 160.85,133.78 161,134.96875 C 160.71251,134.87 160.3925,134.78875 160.0625,134.71875 C 159.89376,133.43125 159.775,132.17375 159.65625,130.9375 z M 266.8125,130.9375 C 266.69375,132.17375 266.57499,133.43125 266.40625,134.71875 C 266.07625,134.78875 265.75624,134.87 265.46875,134.96875 C 265.61875,133.78 265.84875,131.775 265.90625,131.3125 C 266.195,131.17625 266.49625,131.05499 266.8125,130.9375 z M 153,131.34375 C 153.1525,132.6875 153.3375,134.10375 153.5625,135.5625 C 153.24375,135.78 152.92375,136.02375 152.59375,136.3125 C 152.365,134.84625 152.16375,133.455 152,132.09375 C 152.30125,131.83875 152.635,131.57125 153,131.34375 z M 273.46875,131.34375 C 273.83375,131.57125 274.16751,131.83875 274.46875,132.09375 C 274.305,133.455 274.10376,134.84625 273.875,136.3125 C 273.545,136.02375 273.22501,135.78 272.90625,135.5625 C 273.13125,134.10375 273.31626,132.6875 273.46875,131.34375 z M 151.25,132.8125 C 151.42,134.16624 151.61125,135.5425 151.84375,137 C 151.62875,137.22375 151.43125,137.46625 151.21875,137.71875 C 151.02501,136.33125 150.8275,134.9525 150.65625,133.5625 C 150.78499,133.35625 150.98,133.10375 151.25,132.8125 z M 275.21875,132.8125 C 275.48875,133.10375 275.68375,133.35625 275.8125,133.5625 C 275.64125,134.9525 275.44375,136.33125 275.25,137.71875 C 275.0375,137.46625 274.83999,137.22375 274.625,137 C 274.8575,135.5425 275.04876,134.16624 275.21875,132.8125 z M 157.78125,135.4375 C 158.91962,135.38548 160.09062,135.64531 161.21875,136.3125 C 161.40125,137.5475 161.59875,138.775 161.8125,140 C 158.15501,139.17749 154.41625,140.42 152.125,143.40625 C 151.8775,142.02625 151.65625,140.6525 151.4375,139.25 C 152.92508,137.17891 155.27683,135.55194 157.78125,135.4375 z M 268,135.4375 C 270.75361,135.25492 273.40844,136.99063 275.03125,139.25 C 274.8125,140.6525 274.59126,142.02625 274.34375,143.40625 C 272.0525,140.42 268.31375,139.17749 264.65625,140 C 264.87,138.775 265.06751,137.5475 265.25,136.3125 C 266.1525,135.77875 267.08213,135.49836 268,135.4375 z M 159.28125,140.9375 C 159.59875,140.93249 159.91,140.94875 160.21875,140.96875 C 160.45249,142.23999 160.70875,143.54125 161,144.875 C 160.69876,144.85999 160.41625,144.835 160.125,144.84375 C 159.81625,143.48875 159.5325,142.195 159.28125,140.9375 z M 267.1875,140.9375 C 266.93625,142.195 266.65251,143.48875 266.34375,144.84375 C 266.0525,144.835 265.76999,144.85999 265.46875,144.875 C 265.76,143.54125 266.01624,142.23999 266.25,140.96875 C 266.55875,140.94875 266.87001,140.93249 267.1875,140.9375 z M 158.4375,141 C 158.68751,142.2575 158.97375,143.5525 159.28125,144.90625 C 158.9025,144.94625 158.5525,144.99 158.21875,145.0625 C 157.90876,143.71375 157.62875,142.44 157.375,141.1875 C 157.71251,141.10499 158.05875,141.04125 158.4375,141 z M 268.03125,141 C 268.41,141.04125 268.75625,141.10499 269.09375,141.1875 C 268.84,142.44 268.56,143.71375 268.25,145.0625 C 267.91625,144.99 267.56626,144.94625 267.1875,144.90625 C 267.495,143.5525 267.78124,142.2575 268.03125,141 z M 161.09375,141.0625 C 161.42251,141.11625 161.7325,141.1925 162,141.28125 C 162.09626,141.77874 162.53875,143.99125 162.75,145.09375 C 162.46875,145.02875 162.165,144.97625 161.875,144.9375 C 161.585,143.61125 161.33125,142.3275 161.09375,141.0625 z M 265.375,141.0625 C 265.1375,142.3275 264.88376,143.61125 264.59375,144.9375 C 264.30375,144.97625 264,145.02875 263.71875,145.09375 C 263.93,143.99125 264.3725,141.77874 264.46875,141.28125 C 264.73625,141.1925 265.04625,141.11625 265.375,141.0625 z M 156.5625,141.40625 C 156.81374,142.65125 157.1,143.9425 157.40625,145.28125 C 157.06125,145.39625 156.72125,145.575 156.40625,145.75 C 156.09375,144.4125 155.82,143.11875 155.5625,141.875 C 155.89251,141.69001 156.21625,141.53125 156.5625,141.40625 z M 269.90625,141.40625 C 270.2525,141.53125 270.57625,141.69001 270.90625,141.875 C 270.64875,143.11875 270.37501,144.4125 270.0625,145.75 C 269.7475,145.575 269.40751,145.39625 269.0625,145.28125 C 269.36875,143.9425 269.65499,142.65125 269.90625,141.40625 z M 154.8125,142.375 C 155.07125,143.61499 155.3425,144.88875 155.65625,146.21875 C 155.33876,146.44 154.99875,146.71375 154.65625,147.03125 C 154.3525,145.7075 154.09875,144.43125 153.84375,143.1875 C 154.15125,142.885 154.47125,142.62125 154.8125,142.375 z M 271.65625,142.375 C 271.9975,142.62125 272.3175,142.885 272.625,143.1875 C 272.37,144.43125 272.11624,145.7075 271.8125,147.03125 C 271.47,146.71375 271.12999,146.44 270.8125,146.21875 C 271.12625,144.88875 271.39751,143.61499 271.65625,142.375 z M 147.90625,143.34375 C 150.42284,159.72021 156.08139,175.18761 163.25,190.03125 L 156.6875,193.96875 C 148.65452,178.81075 144.44123,162.25672 141.09375,145.5625 L 147.90625,143.34375 z M 278.5625,143.34375 L 285.375,145.5625 C 282.02752,162.25672 277.81424,178.81075 269.78125,193.96875 L 263.21875,190.03125 C 270.38736,175.18761 276.04592,159.72021 278.5625,143.34375 z M 153.15625,143.96875 C 153.41125,145.19251 153.6675,146.44625 153.96875,147.75 C 153.70374,148.05125 153.43875,148.37875 153.1875,148.75 C 152.89751,147.34501 152.50625,145.30125 152.4375,144.96875 C 152.65125,144.60625 152.8975,144.29125 153.15625,143.96875 z M 273.3125,143.96875 C 273.57125,144.29125 273.8175,144.60625 274.03125,144.96875 C 273.9625,145.30125 273.57124,147.34501 273.28125,148.75 C 273.03,148.37875 272.76499,148.05125 272.5,147.75 C 272.80125,146.44625 273.0575,145.19251 273.3125,143.96875 z M 160.21875,145.9375 C 161.15381,145.90143 162.10875,146.04031 163.0625,146.34375 C 163.3475,147.62749 163.64875,148.92 163.96875,150.1875 C 160.07625,149.29249 156.5525,150.39 154.3125,153.75 C 154.03624,152.605 153.75625,151.44125 153.5,150.28125 C 154.85656,147.61875 157.41357,146.04572 160.21875,145.9375 z M 265.53125,145.9375 C 265.76717,145.92481 266.01623,145.92848 266.25,145.9375 C 269.05518,146.04572 271.6122,147.61875 272.96875,150.28125 C 272.7125,151.44125 272.4325,152.605 272.15625,153.75 C 269.91625,150.39 266.39249,149.29249 262.5,150.1875 C 262.82,148.92 263.12124,147.62749 263.40625,146.34375 C 264.12156,146.11617 264.82349,145.97557 265.53125,145.9375 z M 160.8125,151.0625 C 161.12624,152.25001 161.455,153.4875 161.8125,154.75 C 161.46,154.77625 161.105,154.83875 160.75,154.90625 C 160.3875,153.62625 160.03875,152.35875 159.71875,151.15625 C 160.05,151.10876 160.42625,151.07625 160.8125,151.0625 z M 161.65625,151.0625 C 161.9525,151.06999 162.24875,151.09875 162.53125,151.125 C 162.84625,152.30625 163.1725,153.515 163.53125,154.75 C 163.24001,154.72375 162.96125,154.68875 162.65625,154.6875 C 162.30375,153.44625 161.965,152.23 161.65625,151.0625 z M 264.8125,151.0625 C 264.50375,152.23 264.16501,153.44625 263.8125,154.6875 C 263.5075,154.68875 263.22874,154.72375 262.9375,154.75 C 263.29625,153.515 263.62251,152.30625 263.9375,151.125 C 264.22,151.09875 264.51626,151.06999 264.8125,151.0625 z M 265.65625,151.0625 C 266.0425,151.07625 266.41876,151.10876 266.75,151.15625 C 266.43,152.35875 266.08126,153.62625 265.71875,154.90625 C 265.36375,154.83875 265.00876,154.77625 264.65625,154.75 C 265.01375,153.4875 265.3425,152.25001 265.65625,151.0625 z M 163.4375,151.25 C 163.73625,151.30625 164.01375,151.355 164.21875,151.4375 C 164.32625,151.8275 164.86625,153.83125 165.1875,155 C 164.96,154.94 164.69,154.89 164.4375,154.84375 C 164.07625,153.615 163.75375,152.4275 163.4375,151.25 z M 263.03125,151.25 C 262.715,152.4275 262.39251,153.615 262.03125,154.84375 C 261.77875,154.89 261.50876,154.94 261.28125,155 C 261.6025,153.83125 262.1425,151.8275 262.25,151.4375 C 262.455,151.355 262.7325,151.30625 263.03125,151.25 z M 158.90625,151.34375 C 159.22625,152.54625 159.59063,153.78063 159.9375,155.0625 C 159.59687,155.20563 159.26375,155.385 158.96875,155.5625 C 158.595,154.26625 158.265,153 157.9375,151.78125 C 158.24626,151.60624 158.5575,151.46125 158.90625,151.34375 z M 267.5625,151.34375 C 267.91125,151.46125 268.2225,151.60624 268.53125,151.78125 C 268.20375,153 267.87374,154.26625 267.5,155.5625 C 267.205,155.385 266.87186,155.20563 266.53125,155.0625 C 266.87812,153.78063 267.24251,152.54625 267.5625,151.34375 z M 157.1875,152.25 C 157.5175,153.4775 157.87375,154.75625 158.25,156.0625 C 157.88251,156.35126 157.54875,156.66125 157.21875,157.03125 C 156.85251,155.7125 156.51125,154.43375 156.1875,153.1875 C 156.48749,152.865 156.8025,152.54 157.1875,152.25 z M 269.28125,152.25 C 269.66625,152.54 269.98125,152.865 270.28125,153.1875 C 269.9575,154.43375 269.61625,155.7125 269.25,157.03125 C 268.92,156.66125 268.58624,156.35126 268.21875,156.0625 C 268.595,154.75625 268.95124,153.4775 269.28125,152.25 z M 155.53125,153.96875 C 155.85874,155.2175 156.195,156.52375 156.5625,157.84375 C 156.28249,158.22876 156.015,158.63375 155.75,159.09375 C 155.36375,157.67626 154.8025,155.5575 154.71875,155.25 C 154.8525,154.9975 155.1275,154.51 155.53125,153.96875 z M 270.9375,153.96875 C 271.34125,154.51 271.61625,154.9975 271.75,155.25 C 271.66625,155.5575 271.10501,157.67626 270.71875,159.09375 C 270.45375,158.63375 270.18624,158.22876 269.90625,157.84375 C 270.27375,156.52375 270.61,155.2175 270.9375,153.96875 z M 162.65625,155.84375 C 163.61059,155.82201 164.63151,155.9865 165.6875,156.34375 C 166.25124,158.20875 166.76875,159.98875 167.40625,161.8125 C 163.87375,160.195 159.2275,162.5025 157.71875,165.875 C 157.16751,164.175 156.65875,162.43625 156.15625,160.6875 C 157.49375,157.62308 159.79323,155.90896 162.65625,155.84375 z M 263.8125,155.84375 C 266.67552,155.90896 268.97499,157.62308 270.3125,160.6875 C 269.81,162.43625 269.30125,164.175 268.75,165.875 C 267.24125,162.5025 262.59501,160.195 259.0625,161.8125 C 259.7,159.98875 260.21749,158.20875 260.78125,156.34375 C 261.83724,155.9865 262.85816,155.82201 263.8125,155.84375 z M 164.875,162.40625 C 166.39773,162.37685 167.73586,162.96308 168.3125,164.40625 C 170.15775,169.0244 160.43715,173.27688 158.59375,168.65625 C 157.32641,165.47957 161.52498,162.47093 164.875,162.40625 z M 261.59375,162.40625 C 264.94377,162.47093 269.14234,165.47957 267.875,168.65625 C 266.0316,173.27688 256.31101,169.0244 258.15625,164.40625 C 258.73289,162.96308 260.07102,162.37685 261.59375,162.40625 z M 164.40625,164.21875 C 162.33793,164.32919 159.67041,166.1269 160.40625,167.90625 C 161.47656,170.49439 167.56954,167.86832 166.5,165.28125 C 166.16577,164.47279 165.34639,164.16855 164.40625,164.21875 z M 261.53125,164.21875 C 260.82867,164.29542 260.23613,164.63448 259.96875,165.28125 C 258.89921,167.86832 264.99219,170.49439 266.0625,167.90625 C 266.86523,165.96514 263.63899,163.98874 261.53125,164.21875 z M 178.78125,182.375 C 186.48626,196.135 195.22875,205.6825 202,211.6875 C 201.98375,211.78 199.965,220.95875 191.59375,223.15625 C 182.86875,216.6 173.27625,206.06875 165.21875,191.15625 C 172.00001,190.44875 177.3425,184.21125 178.78125,182.375 z M 247.6875,182.375 C 249.12625,184.21125 254.46875,190.44875 261.25,191.15625 C 253.1925,206.06875 243.59999,216.6 234.875,223.15625 C 226.50375,220.95875 224.485,211.78 224.46875,211.6875 C 231.24,205.6825 239.9825,196.135 247.6875,182.375 z M 163.875,191.21875 C 172.07125,206.505 181.7925,217.35 190.75,224.09375 L 185.84375,230.09375 C 174.62375,221.62375 164.9175,209.74125 157.25,195.09375 C 159.41519,193.76241 161.6825,192.42669 163.875,191.21875 z M 262.59375,191.21875 C 264.78625,192.42669 267.05357,193.76241 269.21875,195.09375 C 261.55125,209.74125 251.845,221.62375 240.625,230.09375 L 235.71875,224.09375 C 244.67625,217.35 254.39751,206.505 262.59375,191.21875 z M 202.96875,212.4375 C 206.15095,215.28072 209.62971,217.75974 213.25,220 C 216.87029,217.75974 220.3178,215.28072 223.5,212.4375 C 224.03,214.4825 226.4225,221.7575 233.78125,224.09375 C 228.895,227.5875 224.29624,229.78875 220.375,230.78125 C 218.24451,229.21814 216.00176,227.90625 213.25,227.90625 C 210.49824,227.90625 208.22424,229.21814 206.09375,230.78125 C 202.1725,229.78875 197.57375,227.5875 192.6875,224.09375 C 200.04626,221.7575 202.43875,214.4825 202.96875,212.4375 z M 191.75,224.84375 C 196.89874,228.56874 201.74875,230.92625 205.875,231.96875 C 205.33376,235.20528 206.02723,238.37527 207.3125,241.375 C 200.0575,239.055 193.21875,235.50125 186.84375,230.84375 C 187.92625,229.5225 190.6225,226.22 191.75,224.84375 z M 234.71875,224.84375 C 235.84625,226.22 238.5425,229.5225 239.625,230.84375 C 233.25,235.50125 226.41126,239.055 219.15625,241.375 C 220.44152,238.37527 221.13498,235.20528 220.59375,231.96875 C 224.72,230.92625 229.57,228.56874 234.71875,224.84375 z M 213.25,229.15625 C 215.47655,229.15625 217.53692,229.97791 219.25,231.5 C 219.61158,237.33499 218.23191,243.22716 213.25,246.75 C 208.26809,243.22716 206.85717,237.33499 207.21875,231.5 C 208.93183,229.97791 211.02345,229.15625 213.25,229.15625 z"
           id="contours"
           style="fill:#000000;fill-opacity:1;stroke:none;stroke-opacity:1" />
      </g>
      <g
         id="highlights">
        <path
           d="M 371.40625,511.34375 L 370.46875,511.375 C 370.45834,511.37457 370.44791,511.37457 370.4375,511.375 C 369.35149,511.48373 368.29932,511.81653 367.34375,512.34375 C 367.33159,512.35046 367.32464,512.36822 367.3125,512.375 C 366.55053,512.75248 365.83156,513.19586 365.21875,513.71875 C 365.20773,513.72854 365.19729,513.73898 365.1875,513.75 C 365.12184,513.80631 365.07768,513.8836 365.0625,513.96875 C 365.0568,513.98498 365.0625,514 365.0625,514 C 365.05016,514.01981 365.0397,514.04074 365.03125,514.0625 C 364.84833,514.98869 364.78126,515.90038 364.78125,516.84375 C 364.78125,516.9238 364.7799,517.00267 364.78125,517.09375 C 364.78125,517.46791 364.7779,517.85891 364.8125,518.25 C 364.82852,518.42945 364.86264,518.55069 364.875,518.65625 C 364.90228,518.8807 364.92725,519.13805 364.96875,519.375 C 365.00671,519.59251 365.05857,519.74459 365.09375,519.90625 C 365.12177,520.04137 365.13354,520.25611 365.1875,520.46875 C 365.24696,520.70525 365.34207,520.90899 365.40625,521.125 C 365.45306,521.27997 365.50391,521.41434 365.53125,521.5 C 365.61293,521.7499 365.68134,521.98493 365.78125,522.25 C 365.80553,522.31227 365.84091,522.414 365.875,522.5 C 365.98799,522.78566 366.09317,523.06824 366.21875,523.34375 C 366.283,523.48708 366.31301,523.50822 366.28125,523.4375 C 366.40933,523.71228 366.53412,524.01858 366.6875,524.3125 C 366.68764,524.31283 366.71076,524.32852 366.71875,524.34375 C 366.71832,524.35416 366.71832,524.36459 366.71875,524.375 C 366.72799,524.38937 366.7428,524.39731 366.75,524.40625 C 366.7644,524.42413 366.77277,524.4292 366.78125,524.4375 C 367.91511,526.55041 369.25827,528.19021 370.34375,529.0625 C 370.31227,529.03495 370.32375,529.04885 370.375,529.09375 C 370.38541,529.09418 370.39584,529.09418 370.40625,529.09375 C 370.56361,529.21964 370.68647,529.31251 370.78125,529.375 C 370.79166,529.37543 370.80209,529.37543 370.8125,529.375 C 370.88829,529.42132 370.88102,529.4304 370.84375,529.40625 C 370.85416,529.40668 370.86459,529.40668 370.875,529.40625 C 370.99847,529.48386 371.10819,529.58433 371.28125,529.65625 C 371.38045,529.70174 371.49455,529.70174 371.59375,529.65625 C 371.78589,529.57547 371.8644,529.47222 371.96875,529.40625 C 372.0109,529.38015 372.06716,529.3619 372.09375,529.34375 C 372.19782,529.27437 372.31989,529.18613 372.4375,529.09375 C 372.44961,529.08424 372.45653,529.0723 372.46875,529.0625 C 372.47963,529.05566 372.48886,529.07101 372.5,529.0625 C 372.51102,529.05271 372.52146,529.04227 372.53125,529.03125 C 372.64404,528.93954 372.71421,528.84466 372.8125,528.75 C 372.82352,528.74021 372.83396,528.72977 372.84375,528.71875 C 372.87119,528.69237 372.90996,528.68212 372.9375,528.65625 C 372.94791,528.65668 372.95834,528.65668 372.96875,528.65625 C 373.97771,527.70809 375.14642,526.19204 376.125,524.34375 C 376.13602,524.33396 376.14646,524.32352 376.15625,524.3125 C 376.16727,524.30271 376.17771,524.29227 376.1875,524.28125 C 376.33759,523.99402 376.45931,523.70029 376.59375,523.40625 C 376.56636,523.46299 376.59487,523.44925 376.65625,523.3125 C 376.7823,523.03151 376.89185,522.71347 377,522.4375 C 377.03644,522.34309 377.0436,522.30221 377.0625,522.25 C 377.15643,522.00202 377.25721,521.73626 377.34375,521.46875 C 377.39133,521.32442 377.40989,521.18545 377.4375,521.09375 C 377.44791,521.09418 377.45834,521.09418 377.46875,521.09375 C 377.53261,520.87759 377.59659,520.67613 377.65625,520.4375 C 377.70481,520.24173 377.72044,520.04554 377.75,519.90625 C 377.78463,519.7398 377.83873,519.56135 377.875,519.34375 C 377.91565,519.11298 377.94106,518.88151 377.96875,518.65625 C 377.9811,518.55175 378.01525,518.42926 378.03125,518.25 C 378.06584,517.85885 378.06249,517.46667 378.0625,517.09375 C 378.0625,517.09375 378.06249,516.92741 378.0625,516.84375 C 378.0625,515.90895 377.99548,514.99024 377.8125,514.0625 C 377.80405,514.04074 377.79359,514.01981 377.78125,514 C 377.78125,514 377.78693,513.98493 377.78125,513.96875 C 377.76607,513.8836 377.72191,513.80631 377.65625,513.75 C 377.64646,513.73898 377.63602,513.72854 377.625,513.71875 C 377.01393,513.19845 376.29336,512.73744 375.5,512.34375 C 375.48819,512.33713 375.48059,512.31906 375.46875,512.3125 C 374.53841,511.79734 373.48726,511.48336 372.40625,511.375 C 372.39584,511.37457 372.38541,511.37457 372.375,511.375 C 372.375,511.375 371.41999,511.34376 371.40625,511.34375 z"
           id="bottom_point"
           style="fill:url(#linearGradient2468)" />
        <g
           transform="translate(0.1053333,0)"
           id="spiral_nubs"
           style="fill:url(#linearGradient3975);fill-opacity:1">
          <path
             d="M 343.78125,325.78125 C 344.04985,327.10923 343.96198,328.447 343.75,329.8125 C 343.72131,329.93556 343.75656,330.06479 343.84375,330.15625 C 344.73769,330.58578 345.85639,330.14862 346.5625,329.9375 C 346.6975,329.29126 346.84375,328.58465 346.84375,327.875 C 346.84375,327.10478 346.72671,326.48711 346.59375,325.875 C 345.81358,325.2804 344.71465,325.61381 343.78125,325.78125 z"
             id="spiral_nub_left"
             style="fill:url(#linearGradient3973)" />
          <path
             d="M 398.86521,325.78125 C 398.59661,327.10923 398.68448,328.447 398.89646,329.8125 C 398.92515,329.93556 398.8899,330.06479 398.80271,330.15625 C 397.90877,330.58578 396.79007,330.14862 396.08396,329.9375 C 395.94896,329.29126 395.80271,328.58465 395.80271,327.875 C 395.80271,327.10478 395.91975,326.48711 396.05271,325.875 C 396.83288,325.2804 397.93181,325.61381 398.86521,325.78125 z"
             id="path3969"
             style="fill:url(#linearGradient3971)" />
        </g>
        <g
           id="spiral_curves"
           style="fill:url(#linearGradient4054);fill-opacity:1">
          <path
             d="M 348.0625,318.03125 C 347.93076,318.06117 347.82006,318.15186 347.78125,318.28125 C 347.74243,318.41065 347.78149,318.55875 347.875,318.65625 C 348.06646,318.84918 348.22476,318.96729 348.34375,319.125 C 349.53827,320.69736 350.25013,323.33052 350.375,327 C 350.37457,327.01041 350.37457,327.02084 350.375,327.03125 C 350.39351,327.40144 350.40625,327.77809 350.40625,328.15625 C 350.40625,328.62676 350.40173,329.05634 350.375,329.5 C 350.36717,329.63907 350.33018,329.82492 350.3125,330.03125 C 350.28877,330.30418 350.27824,330.58557 350.25,330.8125 C 350.23126,330.96553 350.18744,331.1097 350.15625,331.3125 C 350.09692,331.7038 350.04352,332.05736 349.96875,332.40625 C 349.96832,332.41666 349.96832,332.42709 349.96875,332.4375 C 349.94888,332.53187 349.92706,332.60198 349.90625,332.6875 C 349.83095,333.01464 349.7765,333.32665 349.6875,333.625 C 349.67077,333.67937 349.64811,333.74321 349.625,333.8125 C 349.14859,335.3465 348.46032,336.61123 347.6875,337.46875 C 347.57608,337.58714 347.54665,337.76379 347.625,337.90625 C 347.70335,338.0487 347.8716,338.12445 348.03125,338.09375 C 348.77916,337.94417 349.49293,337.72868 350.15625,337.40625 C 350.36159,337.3008 350.54991,337.16724 350.71875,337.0625 C 350.77245,337.03085 350.84496,336.99638 350.9375,336.9375 C 350.94791,336.93793 350.95834,336.93793 350.96875,336.9375 C 352.3088,336.0437 353.18089,334.88181 353.75,333.78125 C 355.97027,329.48752 355.30512,323.14154 352.46875,318.25 C 352.40402,318.13766 352.28583,318.06675 352.15625,318.0625 C 351.74537,318.0574 350.06254,318.05 348.15625,318.03125 C 348.12512,318.02733 348.09363,318.02733 348.0625,318.03125 z"
             id="spiral_curve_left"
             style="fill:url(#linearGradient4050);fill-opacity:1" />
          <path
             d="M 390.59375,318.0625 C 390.49877,318.09336 390.42003,318.16085 390.375,318.25 C 387.54122,323.14146 386.87329,329.48975 389.09375,333.78125 C 389.6638,334.8811 390.53345,336.04356 391.875,336.9375 C 391.88541,336.93793 391.89584,336.93793 391.90625,336.9375 C 391.99464,336.99274 392.06486,337.02767 392.125,337.0625 C 392.312,337.1782 392.52365,337.30677 392.71875,337.40625 C 393.37223,337.72313 394.07052,337.94482 394.8125,338.09375 C 394.97215,338.12445 395.1404,338.04868 395.21875,337.90625 C 395.2971,337.7638 395.26767,337.58714 395.15625,337.46875 C 393.97626,336.1617 393.04728,333.94134 392.65625,331.21875 C 392.66296,331.27021 392.68248,331.20339 392.65625,331.03125 C 392.60781,330.66362 392.56172,330.31405 392.53125,329.9375 C 392.52153,329.81387 392.50647,329.69081 392.5,329.59375 C 392.47215,329.15423 392.46874,328.71992 392.46875,328.25 C 392.46875,327.75313 392.47097,327.27451 392.5,326.8125 C 392.50507,326.71915 392.52127,326.59865 392.53125,326.46875 C 392.56348,326.04355 392.60273,325.64655 392.65625,325.25 C 392.67221,325.13426 392.66091,325.11286 392.65625,325.15625 C 393.05408,322.2806 394.00955,319.94795 395.21875,318.6875 C 395.3177,318.57708 395.34209,318.41646 395.28125,318.28125 C 395.22041,318.14604 395.08576,318.06167 394.9375,318.0625 L 390.6875,318.0625 C 390.65637,318.05858 390.62488,318.05858 390.59375,318.0625 z"
             id="spiral_curve_right"
             style="fill:url(#linearGradient4052);fill-opacity:1" />
        </g>
        <g
           id="spiral_tops"
           style="fill:url(#linearGradient4048);fill-opacity:1">
          <path
             d="M 342.4375,301.96875 C 342.15573,301.98083 341.87843,302.01333 341.625,302.03125 C 340.97115,302.07867 340.31155,302.11993 339.625,302.21875 C 339.55168,302.22898 339.52737,302.24364 339.5,302.25 C 339.49348,302.25151 339.47301,302.24931 339.46875,302.25 C 338.29574,302.33741 337.14045,302.47924 336,302.6875 C 327.92587,304.1814 320.72975,308.75563 314.59375,316.25 C 313.51584,317.56618 312.48764,318.96734 311.5,320.4375 C 311.39907,320.58171 311.41207,320.77672 311.53125,320.90625 C 311.54955,320.92948 311.57052,320.95045 311.59375,320.96875 L 317.4375,324.90625 C 317.5954,325.01725 317.81178,324.99021 317.9375,324.84375 C 317.94852,324.83396 317.95896,324.82352 317.96875,324.8125 C 322.43844,318.02933 327.97679,313.15972 334.625,310.90625 C 343.74788,308.35736 349.01318,312.84813 351.375,315.75 C 351.80613,316.27911 352.19551,316.79758 352.5625,317.375 C 352.57291,317.37543 352.58334,317.37543 352.59375,317.375 C 352.59332,317.38541 352.59332,317.39584 352.59375,317.40625 C 352.6022,317.42801 352.61266,317.44894 352.625,317.46875 L 352.6875,317.53125 L 352.78125,317.6875 C 354.71153,320.77472 355.6875,324.35588 355.6875,327.6875 C 355.6875,330.21545 355.14367,332.58863 354,334.5 C 352.64287,336.76751 350.55999,338.18403 347.96875,338.65625 C 347.82336,338.67796 347.69664,338.79615 347.65625,338.9375 C 347.61587,339.07885 347.66928,339.21725 347.78125,339.3125 C 347.82483,339.35613 347.8785,339.38833 347.9375,339.40625 C 350.86268,340.24174 353.97015,340.26736 356.5,339.90625 C 357.76492,339.72569 358.86101,339.42961 359.75,339.09375 C 360.63899,338.75789 361.32543,338.39616 361.6875,337.90625 C 366.88286,330.87131 367.1237,321.19288 362.34375,313.25 C 359.00209,307.69611 355.11198,303.95462 349.0625,302.5625 C 349.05209,302.56207 349.04166,302.56207 349.03125,302.5625 L 348.90625,302.53125 C 348.18033,302.3646 347.44405,302.22338 346.6875,302.125 C 346.51176,302.10174 346.40621,302.12499 346.40625,302.125 C 345.82638,302.05582 345.2599,301.99565 344.65625,301.96875 C 344.36295,301.95647 344.06509,301.97227 343.8125,301.96875 C 343.36744,301.9638 342.94233,301.94928 342.46875,301.96875 C 342.45834,301.96832 342.44791,301.96832 342.4375,301.96875 z"
             id="spiral_top_left"
             style="fill:url(#linearGradient2441)" />
          <path
             d="M 398.0625,301.96875 C 397.29163,302.00805 396.53734,302.07694 395.78125,302.1875 C 395.77084,302.18707 395.76041,302.18707 395.75,302.1875 C 394.94879,302.30667 394.15583,302.45498 393.375,302.65625 L 392.46875,302.90625 C 387.00195,304.51406 383.59022,308.11476 380.5,313.25 C 375.72259,321.19163 375.9608,330.87247 381.15625,337.90625 C 381.51815,338.39675 382.205,338.75754 383.09375,339.09375 C 383.9825,339.42996 385.07902,339.72569 386.34375,339.90625 C 388.87321,340.26738 391.97924,340.243 394.90625,339.40625 C 395.0465,339.37523 395.15424,339.26473 395.1875,339.125 C 395.22077,338.98527 395.17372,338.84089 395.0625,338.75 C 395.01019,338.70155 394.94514,338.66903 394.875,338.65625 C 392.27964,338.18152 390.23472,336.77466 388.875,334.5 C 386.22441,330.06466 386.69389,323.11088 390.09375,317.6875 C 390.51192,316.99955 390.96263,316.37226 391.46875,315.75 C 393.83504,312.84592 399.08917,308.34722 408.25,310.90625 C 414.88502,313.15579 420.41257,318.03898 424.875,324.8125 C 424.93184,324.89686 425.02481,324.95108 425.125,324.96875 C 425.22518,324.98643 425.32396,324.96606 425.40625,324.90625 L 431.25,320.96875 C 431.33436,320.91191 431.38858,320.81894 431.40625,320.71875 C 431.42393,320.61857 431.40356,320.51979 431.34375,320.4375 C 430.35767,318.97218 429.32863,317.53609 428.25,316.21875 C 422.11499,308.72656 414.92526,304.18612 406.8125,302.6875 C 405.6703,302.47789 404.51964,302.33855 403.34375,302.25 C 403.33332,302.24921 403.32293,302.25078 403.3125,302.25 C 403.26816,302.24226 403.22737,302.22814 403.15625,302.21875 C 402.46251,302.11892 401.78121,302.04574 401.09375,302 C 400.83034,301.98165 400.55883,301.97736 400.3125,301.96875 C 399.74515,301.94703 399.20662,301.95364 398.65625,301.96875 C 398.49679,301.97306 398.27918,301.95856 398.0625,301.96875 z"
             id="spiral_top_right"
             style="fill:url(#linearGradient2443)" />
        </g>
        <g
           id="spiral_insides"
           style="fill:url(#linearGradient4042);fill-opacity:1">
          <path
             d="M 357.90625,298 C 357.02308,298.0172 356.0433,298.19714 355.15625,298.75 C 353.88461,299.54133 353.08148,300.99633 352.75,302.90625 C 352.72106,303.07582 352.81125,303.24332 352.96875,303.3125 C 357.44908,305.19277 360.04333,308.41841 362.78125,312.96875 C 367.67724,321.10534 367.37099,331.02981 362.0625,338.21875 C 361.6811,338.73505 360.73466,339.30026 359.4375,339.71875 C 358.14034,340.13724 356.50683,340.43885 354.75,340.5625 C 351.23634,340.8098 347.25598,340.31609 344.5,338.8125 C 344.45076,338.79101 344.39747,338.78035 344.34375,338.78125 C 342.99171,338.70437 341.6984,337.58882 340.75,335.6875 C 339.8016,333.78618 339.21875,331.14076 339.21875,328.15625 C 339.21875,325.1154 339.83734,322.4149 340.8125,320.5 C 343.38048,316.53615 347.77015,317.47527 351.71875,317.375 C 348.67793,310.91094 341.01499,310.42151 334.8125,311.34375 C 334.80148,311.35354 334.79104,311.36398 334.78125,311.375 C 328.18038,313.60111 322.85664,318.5834 318.46875,325.21875 C 318.40247,325.30843 318.37956,325.42297 318.40625,325.53125 C 320.0605,331.31471 325.69274,336.71306 331.28125,340.90625 C 336.86976,345.09944 342.46326,348.08834 344.0625,348.90625 C 344.18405,348.96388 344.32716,348.95195 344.4375,348.875 C 350.32637,345.03675 356.3682,342.87498 364.6875,341.90625 C 364.78383,341.89837 364.8734,341.85359 364.9375,341.78125 C 366.1587,340.45734 367.08832,338.29968 367.78125,335.59375 C 368.47418,332.88782 368.90893,329.64846 369.09375,326.21875 C 369.46338,319.35933 368.783,311.71746 366.875,306.0625 C 366.34558,304.49387 365.62561,302.75767 364.625,301.3125 C 363.64472,299.89671 362.38278,298.75168 360.8125,298.4375 C 360.78972,298.43294 360.77291,298.41046 360.75,298.40625 C 360.73959,298.40582 360.72916,298.40582 360.71875,298.40625 C 360.68902,298.39174 360.65749,298.38123 360.625,298.375 C 360.62103,298.37373 360.60225,298.37766 360.59375,298.375 L 360.53125,298.375 C 360.51077,298.36886 360.52322,298.35039 360.5,298.34375 C 360.40381,298.31623 360.26233,298.28906 360.09375,298.25 C 359.7566,298.17189 359.28476,298.07478 358.75,298.03125 C 358.48398,298.00959 358.20064,297.99427 357.90625,298 z"
             id="spiral_inside_left"
             style="fill:url(#linearGradient4038)" />
          <path
             d="M 384.9375,298 C 384.63971,297.9914 384.36241,298.00949 384.09375,298.03125 C 383.05479,298.1154 382.33034,298.3798 382.25,298.40625 C 382.24738,298.40711 382.18863,298.40587 382.1875,298.40625 C 382.1667,298.40451 382.1458,298.40451 382.125,298.40625 C 380.50808,298.69215 379.21924,299.86777 378.21875,301.3125 C 377.21826,302.75723 376.49817,304.49259 375.96875,306.0625 C 374.06079,311.71737 373.38036,319.33569 373.75,326.1875 C 373.93482,329.6134 374.36955,332.85953 375.0625,335.5625 C 375.75545,338.26547 376.68515,340.42653 377.90625,341.75 C 377.97035,341.82234 378.05992,341.86712 378.15625,341.875 C 386.46975,342.84114 392.54082,345.03156 398.4375,348.875 C 398.54784,348.95195 398.69095,348.96388 398.8125,348.90625 C 400.41208,348.08691 406.0053,345.10677 411.59375,340.90625 C 417.1822,336.70573 422.81452,331.284 424.46875,325.5 C 424.49544,325.39172 424.47253,325.27718 424.40625,325.1875 C 420.02408,318.56015 414.68147,313.59715 408.09375,311.375 C 408.08396,311.36398 408.07352,311.35354 408.0625,311.34375 C 399.3276,308.90545 394.15297,313.23084 391.875,316.03125 C 391.63113,316.33131 391.38013,316.65148 391.15625,316.96875 C 391.0732,317.08412 391.0588,317.2492 391.125,317.375 C 391.19121,317.50079 391.32663,317.56564 391.46875,317.5625 L 398.25,317.5625 C 399.6518,317.5625 400.98988,318.65905 402,320.59375 C 403.01012,322.52845 403.65625,325.25621 403.65625,328.25 C 403.65625,331.20844 403.07314,333.83468 402.125,335.71875 C 401.17686,337.60282 399.88431,338.70428 398.53125,338.78125 C 398.47753,338.78035 398.42424,338.79101 398.375,338.8125 C 395.61735,340.31903 391.61463,340.81027 388.09375,340.5625 C 386.33331,340.43861 384.70612,340.13786 383.40625,339.71875 C 382.10638,339.29964 381.16283,338.73545 380.78125,338.21875 C 375.47288,331.03243 375.16781,321.10276 380.0625,312.96875 C 382.80551,308.41075 385.39064,305.19415 389.875,303.3125 C 390.0325,303.24332 390.12269,303.07582 390.09375,302.90625 C 389.76031,301.00641 388.98847,299.57225 387.71875,298.78125 C 386.83141,298.22795 385.83086,298.02579 384.9375,298 z"
             id="spiral_inside_right"
             style="fill:url(#linearGradient4040)" />
        </g>
        <path
           d="M 367.09375,288.65625 C 366.26081,288.65625 365.51942,289.22621 364.90625,289.96875 C 364.29308,290.71129 363.78171,291.67104 363.5,292.625 C 363.47171,292.7246 363.47798,292.81746 363.53125,292.90625 C 363.58452,292.99504 363.68005,293.07184 363.78125,293.09375 C 366.76074,293.90984 369.2387,296.17374 371.09375,299.75 C 371.15202,299.86254 371.2489,299.92488 371.375,299.9375 C 371.5011,299.95011 371.63935,299.91127 371.71875,299.8125 C 371.74198,299.7942 371.76295,299.77323 371.78125,299.75 C 373.63499,296.17387 376.11423,293.90985 379.09375,293.09375 C 379.19495,293.07184 379.29047,292.99503 379.34375,292.90625 C 379.39702,292.81746 379.40329,292.7246 379.375,292.625 C 379.09332,291.67111 378.58178,290.71132 377.96875,289.96875 C 377.35572,289.22618 376.61464,288.65626 375.78125,288.65625 C 374.04277,288.65625 373.01087,289.61543 372.5625,290.0625 C 372.52593,290.08793 372.49418,290.11968 372.46875,290.15625 C 372.50886,290.07358 372.47099,290.14588 372.4375,290.1875 C 372.40401,290.22912 372.37101,290.27571 372.3125,290.34375 C 372.19548,290.47982 372.03277,290.66757 371.875,290.84375 C 371.68442,291.05657 371.57855,291.15762 371.4375,291.3125 C 371.29645,291.15762 371.19058,291.05657 371,290.84375 C 370.84223,290.66757 370.67952,290.47982 370.5625,290.34375 C 370.50399,290.27571 370.47099,290.22912 370.4375,290.1875 C 370.40401,290.14588 370.36614,290.07359 370.40625,290.15625 C 370.38082,290.11968 370.34907,290.08793 370.3125,290.0625 C 369.8644,289.61569 368.83338,288.65626 367.09375,288.65625 z"
           id="top_crown"
           style="fill:url(#linearGradient2483)" />
        <g
           id="hotdogs">
          <path
             d="M 313.71875,393.28125 C 312.25153,393.1105 310.49565,393.4606 309.125,394.28125 C 307.75435,395.1019 306.78595,396.34131 306.75,398 C 307.10039,416.16215 310.66206,433.97704 316.09375,451.28125 C 316.54843,452.77926 317.52492,453.5533 318.78125,453.84375 C 320.03758,454.1342 321.57144,453.89661 323,453.28125 C 324.42856,452.66589 325.73203,451.67445 326.53125,450.5 C 327.33047,449.32555 327.65122,447.9836 327.15625,446.59375 C 321.72526,431.63455 318.68786,415.77998 318.71875,399.84375 C 318.75295,397.98782 318.48771,396.44206 317.75,395.34375 C 317.01229,394.24544 315.77864,393.52009 313.71875,393.28125 z"
             id="left_hotdog_gradient"
             style="fill:url(#linearGradient4032);fill-opacity:1" />
          <path
             d="M 429.15625,393.28125 C 430.62347,393.1105 432.37935,393.4606 433.75,394.28125 C 435.12065,395.1019 436.08905,396.34131 436.125,398 C 435.77461,416.16215 432.21294,433.97704 426.78125,451.28125 C 426.32657,452.77926 425.35008,453.5533 424.09375,453.84375 C 422.83742,454.1342 421.30356,453.89661 419.875,453.28125 C 418.44644,452.66589 417.14297,451.67445 416.34375,450.5 C 415.54453,449.32555 415.22378,447.9836 415.71875,446.59375 C 421.14974,431.63455 424.18714,415.77998 424.15625,399.84375 C 424.12205,397.98782 424.38729,396.44206 425.125,395.34375 C 425.86271,394.24544 427.09636,393.52009 429.15625,393.28125 z"
             id="right_hotdog_gradient"
             style="fill:url(#linearGradient4034);fill-opacity:1" />
        </g>
      </g>
    </g>
  </g>
  <defs
     id="defs4">
    <linearGradient
       id="linearGradient3924">
      <stop
         id="stop3926"
         style="stop-color:#000000;stop-opacity:0.75294119"
         offset="0" />
      <stop
         id="stop3928"
         style="stop-color:#000000;stop-opacity:0"
         offset="1" />
    </linearGradient>
    <linearGradient
       id="linearGradient3796">
      <stop
         id="stop3798"
         style="stop-color:#000000;stop-opacity:0.75294119"
         offset="0" />
      <stop
         id="stop3800"
         style="stop-color:#000000;stop-opacity:0"
         offset="1" />
    </linearGradient>
    <linearGradient
       id="linearGradient3784">
      <stop
         id="stop3786"
         style="stop-color:#000000;stop-opacity:0.75294119"
         offset="0" />
      <stop
         id="stop3788"
         style="stop-color:#000000;stop-opacity:0"
         offset="1" />
    </linearGradient>
    <linearGradient
       id="linearGradient3772">
      <stop
         id="stop3774"
         style="stop-color:#000000;stop-opacity:0.75294119"
         offset="0" />
      <stop
         id="stop3776"
         style="stop-color:#000000;stop-opacity:0"
         offset="1" />
    </linearGradient>
    <linearGradient
       id="linearGradient3752">
      <stop
         id="stop3754"
         style="stop-color:#000000;stop-opacity:0.75294119"
         offset="0" />
      <stop
         id="stop3756"
         style="stop-color:#000000;stop-opacity:0"
         offset="1" />
    </linearGradient>
    <linearGradient
       x1="306.75"
       y1="425.47797"
       x2="317.07098"
       y2="423.60297"
       id="linearGradient4032"
       xlink:href="#linearGradient3924"
       gradientUnits="userSpaceOnUse" />
    <linearGradient
       x1="306.75"
       y1="425.47797"
       x2="317.07098"
       y2="423.60297"
       id="linearGradient4034"
       xlink:href="#linearGradient3924"
       gradientUnits="userSpaceOnUse"
       gradientTransform="matrix(-1,0,0,1,742.875,0)" />
    <linearGradient
       x1="371.4375"
       y1="297.9978"
       x2="371.4375"
       y2="323.47009"
       id="linearGradient4038"
       xlink:href="#linearGradient3752"
       gradientUnits="userSpaceOnUse" />
    <linearGradient
       x1="371.4375"
       y1="297.9978"
       x2="371.4375"
       y2="323.47009"
       id="linearGradient4040"
       xlink:href="#linearGradient3752"
       gradientUnits="userSpaceOnUse" />
    <linearGradient
       x1="371.4375"
       y1="297.9978"
       x2="371.4375"
       y2="323.47009"
       id="linearGradient4042"
       xlink:href="#linearGradient3752"
       gradientUnits="userSpaceOnUse" />
    <linearGradient
       x1="371.42233"
       y1="340.12756"
       x2="371.42233"
       y2="321.0412"
       id="linearGradient4048"
       xlink:href="#linearGradient3772"
       gradientUnits="userSpaceOnUse" />
    <linearGradient
       x1="371.44763"
       y1="338.10052"
       x2="371.44763"
       y2="328.06442"
       id="linearGradient4050"
       xlink:href="#linearGradient3784"
       gradientUnits="userSpaceOnUse" />
    <linearGradient
       x1="371.44763"
       y1="338.10052"
       x2="371.44763"
       y2="328.06442"
       id="linearGradient4052"
       xlink:href="#linearGradient3784"
       gradientUnits="userSpaceOnUse" />
    <linearGradient
       x1="371.44763"
       y1="338.10052"
       x2="371.44763"
       y2="328.06442"
       id="linearGradient4054"
       xlink:href="#linearGradient3784"
       gradientUnits="userSpaceOnUse" />
    <linearGradient
       x1="364.78064"
       y1="520.51709"
       x2="378.06259"
       y2="520.51709"
       id="linearGradient2468"
       xlink:href="#linearGradient3752"
       gradientUnits="userSpaceOnUse" />
    <linearGradient
       x1="371.4375"
       y1="288.65625"
       x2="371.4375"
       y2="294.29803"
       id="linearGradient2483"
       xlink:href="#linearGradient3752"
       gradientUnits="userSpaceOnUse" />
    <linearGradient
       x1="371.54535"
       y1="330.28149"
       x2="371.54535"
       y2="327.93616"
       id="linearGradient3971"
       xlink:href="#linearGradient3796"
       gradientUnits="userSpaceOnUse"
       gradientTransform="matrix(-1,0,0,1,742.64646,0)" />
    <linearGradient
       x1="371.54535"
       y1="330.28149"
       x2="371.54535"
       y2="327.93616"
       id="linearGradient3973"
       xlink:href="#linearGradient3796"
       gradientUnits="userSpaceOnUse" />
    <linearGradient
       x1="371.54535"
       y1="330.28149"
       x2="371.54535"
       y2="327.93616"
       id="linearGradient3975"
       xlink:href="#linearGradient3796"
       gradientUnits="userSpaceOnUse" />
    <linearGradient
       x1="371.42233"
       y1="340.12756"
       x2="371.42233"
       y2="321.0412"
       id="linearGradient2441"
       xlink:href="#linearGradient3772"
       gradientUnits="userSpaceOnUse" />
    <linearGradient
       x1="371.42233"
       y1="340.12756"
       x2="371.42233"
       y2="321.0412"
       id="linearGradient2443"
       xlink:href="#linearGradient3772"
       gradientUnits="userSpaceOnUse" />
  </defs>
</svg>
