<?xml version="1.0" encoding="UTF-8" standalone="no"?>
<svg
   xmlns:dc="http://purl.org/dc/elements/1.1/"
   xmlns:cc="http://creativecommons.org/ns#"
   xmlns:rdf="http://www.w3.org/1999/02/22-rdf-syntax-ns#"
   xmlns:svg="http://www.w3.org/2000/svg"
   xmlns="http://www.w3.org/2000/svg"
   xmlns:sodipodi="http://sodipodi.sourceforge.net/DTD/sodipodi-0.dtd"
   xmlns:inkscape="http://www.inkscape.org/namespaces/inkscape"
   version="1.0"
   id="body"
   width="105"
   height="85"
   viewBox=".05 .1 .85 .8"
   sodipodi:version="0.32"
   inkscape:version="0.46"
   sodipodi:docname="USCMS-logo6.svg"
   inkscape:output_extension="org.inkscape.output.svg.inkscape">
  <metadata
     id="metadata126">
    <rdf:RDF>
      <cc:Work
         rdf:about="">
        <dc:format>image/svg+xml</dc:format>
        <dc:type
           rdf:resource="http://purl.org/dc/dcmitype/StillImage" />
      </cc:Work>
    </rdf:RDF>
  </metadata>
  <defs
     id="defs124">
    <inkscape:perspective
       sodipodi:type="inkscape:persp3d"
       inkscape:vp_x="0 : 360 : 1"
       inkscape:vp_y="0 : 1000 : 0"
       inkscape:vp_z="720 : 360 : 1"
       inkscape:persp3d-origin="360 : 240 : 1"
       id="perspective128" />
  </defs>
  <sodipodi:namedview
     inkscape:window-height="642"
     inkscape:window-width="677"
     inkscape:pageshadow="2"
     inkscape:pageopacity="0.0"
     guidetolerance="10.0"
     gridtolerance="10.0"
     objecttolerance="10.0"
     borderopacity="1.0"
     bordercolor="#666666"
     pagecolor="#ffffff"
     id="base"
     showgrid="false"
     inkscape:zoom="1.808052"
     inkscape:cx="143.76904"
     inkscape:cy="106.97431"
     inkscape:window-x="145"
     inkscape:window-y="49"
     inkscape:current-layer="body" />
  <title
     id="title3">SVG drawing</title>
  <desc
     id="desc5">This was produced by version 4.2 of GNU libplot, a free library for exporting 2-D vector graphics.</desc>
  <g
     id="content"
     transform="matrix(3.7578098e-3,0,0,-3.7578098e-3,-0.9541712,2.1476351)"
     xml:space="preserve"
     stroke-miterlimit="10.433"
     fill-rule="even-odd"
     font-style="normal"
     font-variant="normal"
     font-weight="normal"
     font-stretch="normal"
     font-size-adjust="none"
     letter-spacing="normal"
     word-spacing="normal"
     style="font-style:normal;font-variant:normal;font-weight:normal;font-stretch:normal;letter-spacing:normal;word-spacing:normal;text-anchor:start;fill:none;fill-opacity:1;stroke:#000000;stroke-linecap:butt;stroke-linejoin:miter;stroke-miterlimit:10.43299961;stroke-dasharray:none;stroke-dashoffset:0;stroke-opacity:1">
<polygon
   points="503.39,516.71 503.48,349.61 336.17,349.61 336.09,516.71 503.39,516.71 "
   id="polygon9"
   style="fill:#f8dfc6;fill-rule:nonzero;stroke:#f8dfc6;stroke-width:0" />
<path
   d="M 336.06,349.54 L 336.18,349.54 L 336.54,349.54 L 337.13,349.54 L 337.94,349.54 L 338.97,349.54 L 340.2,349.54 L 341.64,349.54 L 343.27,349.54 L 345.08,349.54 L 347.06,349.54 L 349.22,349.54 L 351.54,349.55 L 354.01,349.55 L 356.62,349.55 L 359.38,349.55 L 362.26,349.55 L 368.39,349.56 L 374.95,349.56 L 381.87,349.57 L 389.1,349.57 L 396.58,349.57 L 404.24,349.58 L 419.86,349.59 L 435.48,349.6 L 443.13,349.61 L 450.59,349.61 L 457.81,349.61 L 464.72,349.62 L 471.26,349.62 L 477.36,349.63 L 480.23,349.63 L 482.97,349.63 L 485.58,349.63 L 488.03,349.63 L 490.33,349.64 L 492.47,349.64 L 494.44,349.64 L 496.23,349.64 L 497.84,349.64 L 499.25,349.64 L 500.47,349.64 L 501.47,349.64 L 502.26,349.64 L 502.83,349.64 L 503.17,349.64 L 503.26,349.64 C 502.73,349.64 503.2,349.64 502.97,353.11 C 494.15,486.84 384.81,516.08 336.34,516.4 C 336.15,516.4 336.06,516.39 336.06,516.39 L 336.06,349.54 z"
   id="path11"
   style="fill:#00f0ff;fill-rule:nonzero;stroke:#00f0ff;stroke-width:0" />
<path
   d="M 336.06,349.54 L 336.18,349.54 L 336.54,349.54 L 337.13,349.54 L 337.94,349.54 L 338.97,349.54 L 340.2,349.54 L 341.64,349.54 L 343.27,349.54 L 345.08,349.54 L 347.06,349.54 L 349.22,349.54 L 351.54,349.55 L 354.01,349.55 L 356.62,349.55 L 359.38,349.55 L 362.26,349.55 L 368.39,349.56 L 374.95,349.56 L 381.87,349.57 L 389.1,349.57 L 396.58,349.57 L 404.24,349.58 L 419.86,349.59 L 435.48,349.6 L 443.13,349.61 L 450.59,349.61 L 457.81,349.61 L 464.72,349.62 L 471.26,349.62 L 477.36,349.63 L 480.23,349.63 L 482.97,349.63 L 485.58,349.63 L 488.03,349.63 L 490.33,349.64 L 492.47,349.64 L 494.44,349.64 L 496.23,349.64 L 497.84,349.64 L 499.25,349.64 L 500.47,349.64 L 501.47,349.64 L 502.26,349.64 L 502.83,349.64 L 503.17,349.64 L 503.26,349.64 C 502.73,349.64 503.2,349.64 502.97,353.11 C 494.15,486.84 384.81,516.08 336.34,516.4 C 336.15,516.4 336.06,516.39 336.06,516.39 L 336.06,349.54 z"
   id="path13"
   style="stroke:#858585;stroke-width:0.5" />
<path
   d="M 336.21,446.66 L 336.21,446.66 L 336.21,446.66 L 336.22,446.65 L 336.23,446.65 L 336.25,446.65 L 336.27,446.65 L 336.3,446.65 L 336.33,446.64 L 336.36,446.64 L 336.4,446.64 L 336.44,446.63 L 336.49,446.63 L 336.54,446.62 L 336.59,446.62 L 336.64,446.61 L 336.7,446.61 L 336.76,446.6 L 336.82,446.6 L 336.89,446.59 L 336.95,446.58 L 337.02,446.58 L 337.09,446.57 L 337.17,446.57 L 337.24,446.56 L 337.32,446.56 L 337.47,446.55 L 337.62,446.54 L 337.78,446.53 L 337.94,446.52 C 374.75,445.24 430.61,418.49 432.96,351.5 C 433.04,349.46 433.09,349.51 433.09,349.51 C 323.57,349.51 336.15,349.52 336.15,349.52 L 336.21,446.66 z"
   id="path15"
   style="fill:#ffc30c;fill-rule:nonzero;stroke:#ffc30c;stroke-width:0" />
<path
   d="M 336.21,446.66 L 336.21,446.66 L 336.21,446.66 L 336.22,446.65 L 336.23,446.65 L 336.25,446.65 L 336.27,446.65 L 336.3,446.65 L 336.33,446.64 L 336.36,446.64 L 336.4,446.64 L 336.44,446.63 L 336.49,446.63 L 336.54,446.62 L 336.59,446.62 L 336.64,446.61 L 336.7,446.61 L 336.76,446.6 L 336.82,446.6 L 336.89,446.59 L 336.95,446.58 L 337.02,446.58 L 337.09,446.57 L 337.17,446.57 L 337.24,446.56 L 337.32,446.56 L 337.47,446.55 L 337.62,446.54 L 337.78,446.53 L 337.94,446.52 C 374.75,445.24 430.61,418.49 432.96,351.5 C 433.04,349.46 433.09,349.51 433.09,349.51 C 323.57,349.51 336.15,349.52 336.15,349.52 L 336.21,446.66 z"
   id="path17"
   style="stroke:#858585;stroke-width:0.5" />
<path
   d="M 336.14,414.27 L 336.14,414.27 L 336.14,414.27 L 336.15,414.27 L 336.16,414.27 L 336.18,414.26 L 336.2,414.26 L 336.22,414.26 L 336.24,414.25 L 336.27,414.25 L 336.3,414.24 L 336.33,414.23 L 336.37,414.23 L 336.41,414.22 L 336.45,414.22 L 336.5,414.21 L 336.55,414.2 L 336.6,414.19 L 336.66,414.19 L 336.71,414.18 L 336.77,414.17 L 336.84,414.17 L 336.91,414.16 L 336.98,414.15 L 337.05,414.15 L 337.13,414.14 L 337.2,414.13 L 337.29,414.13 L 337.37,414.12 L 337.46,414.12 L 337.55,414.12 L 337.64,414.11 L 337.74,414.11 C 350.35,413.78 397.87,404.36 400.43,350 C 400.5,348.64 400.41,349.51 400.41,349.51 C 327.12,349.51 336.15,349.52 336.15,349.52 L 336.14,414.27 z"
   id="path19"
   style="fill:#f0eeff;fill-rule:nonzero;stroke:#f0eeff;stroke-width:0" />
<path
   d="M 336.14,414.27 L 336.14,414.27 L 336.14,414.27 L 336.15,414.27 L 336.16,414.27 L 336.18,414.26 L 336.2,414.26 L 336.22,414.26 L 336.24,414.25 L 336.27,414.25 L 336.3,414.24 L 336.33,414.23 L 336.37,414.23 L 336.41,414.22 L 336.45,414.22 L 336.5,414.21 L 336.55,414.2 L 336.6,414.19 L 336.66,414.19 L 336.71,414.18 L 336.77,414.17 L 336.84,414.17 L 336.91,414.16 L 336.98,414.15 L 337.05,414.15 L 337.13,414.14 L 337.2,414.13 L 337.29,414.13 L 337.37,414.12 L 337.46,414.12 L 337.55,414.12 L 337.64,414.11 L 337.74,414.11 C 350.35,413.78 397.87,404.36 400.43,350 C 400.5,348.64 400.41,349.51 400.41,349.51 C 327.12,349.51 336.15,349.52 336.15,349.52 L 336.14,414.27 z"
   id="path21"
   style="stroke:#858585;stroke-width:0.5" />
<path
   d="M 336.14,388.1 L 336.17,388.1 L 336.24,388.11 L 336.37,388.11 L 336.54,388.11 L 336.76,388.12 L 337.02,388.12 L 337.33,388.12 L 337.67,388.11 L 338.48,388.08 L 339.44,388.02 L 340.53,387.93 L 341.74,387.79 L 343.06,387.59 L 344.48,387.34 L 345.98,387.02 L 347.55,386.62 L 349.18,386.14 L 350.86,385.57 L 352.57,384.89 L 354.31,384.11 L 356.05,383.21 L 357.8,382.18 L 359.53,381.03 L 361.23,379.73 L 362.06,379.02 L 362.89,378.28 L 363.7,377.5 L 364.5,376.68 L 365.28,375.82 L 366.04,374.91 L 366.79,373.96 L 367.51,372.97 L 368.21,371.93 L 368.89,370.85 L 369.54,369.72 L 370.17,368.54 L 370.76,367.31 L 371.33,366.03 L 371.86,364.7 L 372.37,363.32 L 372.83,361.89 L 373.26,360.4 L 373.66,358.85 L 374.01,357.25 L 374.33,355.6 L 374.6,353.88 L 374.82,352.11 L 375,350.27 C 375.07,349.47 375.07,349.47 375.07,349.47 C 331.71,349.47 336.14,349.45 336.14,349.45 L 336.14,388.1 z"
   id="path23"
   style="fill:#bfbfff;fill-rule:nonzero;stroke:#bfbfff;stroke-width:0" />
<path
   d="M 336.14,388.1 L 336.17,388.1 L 336.24,388.11 L 336.37,388.11 L 336.54,388.11 L 336.76,388.12 L 337.02,388.12 L 337.33,388.12 L 337.67,388.11 L 338.48,388.08 L 339.44,388.02 L 340.53,387.93 L 341.74,387.79 L 343.06,387.59 L 344.48,387.34 L 345.98,387.02 L 347.55,386.62 L 349.18,386.14 L 350.86,385.57 L 352.57,384.89 L 354.31,384.11 L 356.05,383.21 L 357.8,382.18 L 359.53,381.03 L 361.23,379.73 L 362.06,379.02 L 362.89,378.28 L 363.7,377.5 L 364.5,376.68 L 365.28,375.82 L 366.04,374.91 L 366.79,373.96 L 367.51,372.97 L 368.21,371.93 L 368.89,370.85 L 369.54,369.72 L 370.17,368.54 L 370.76,367.31 L 371.33,366.03 L 371.86,364.7 L 372.37,363.32 L 372.83,361.89 L 373.26,360.4 L 373.66,358.85 L 374.01,357.25 L 374.33,355.6 L 374.6,353.88 L 374.82,352.11 L 375,350.27 C 375.07,349.47 375.07,349.47 375.07,349.47 C 331.71,349.47 336.14,349.45 336.14,349.45 L 336.14,388.1 z"
   id="path25"
   style="stroke:#858585;stroke-width:0.5" />
<path
   d="M 378.86,462.55 L 378.54,462.35 L 378.23,462.16 L 377.9,461.98 L 377.58,461.8 L 377.25,461.63 L 376.91,461.47 L 376.22,461.17 L 375.52,460.89 L 374.8,460.65 L 374.08,460.43 L 373.34,460.24 L 372.59,460.08 L 371.84,459.94 L 371.09,459.83 L 370.33,459.73 L 369.57,459.66 L 368.81,459.62 L 368.06,459.59 L 367.31,459.58 C 355.83,459.58 348.93,466.84 348.93,478.27 C 348.93,490.02 357.6,496.71 368.62,496.71 C 372.43,496.71 376.35,495.82 379.85,494.3 C 379.32,493 379.01,491.64 378.75,490.29 L 378.38,490.23 C 377.65,491.17 373.79,494.72 368.41,494.72 C 358.8,494.72 354.05,486.94 354.05,478.07 C 354.05,468.04 359.79,461.62 368.05,461.62 C 373.68,461.62 378.07,464.96 379.12,465.85 L 378.86,462.55 z"
   id="path27"
   style="fill:#0019e6;fill-rule:nonzero;stroke:#0019e6;stroke-width:0" />
<path
   d="M 378.86,462.55 L 378.54,462.35 L 378.23,462.16 L 377.9,461.98 L 377.58,461.8 L 377.25,461.63 L 376.91,461.47 L 376.22,461.17 L 375.52,460.89 L 374.8,460.65 L 374.08,460.43 L 373.34,460.24 L 372.59,460.08 L 371.84,459.94 L 371.09,459.83 L 370.33,459.73 L 369.57,459.66 L 368.81,459.62 L 368.06,459.59 L 367.31,459.58 C 355.83,459.58 348.93,466.84 348.93,478.27 C 348.93,490.02 357.6,496.71 368.62,496.71 C 372.43,496.71 376.35,495.82 379.85,494.3 C 379.32,493 379.01,491.64 378.75,490.29 L 378.38,490.23 C 377.65,491.17 373.79,494.72 368.41,494.72 C 358.8,494.72 354.05,486.94 354.05,478.07 C 354.05,468.04 359.79,461.62 368.05,461.62 C 373.68,461.62 378.07,464.96 379.12,465.85 L 378.86,462.55 z"
   id="path29"
   style="stroke:#ffffff;stroke-width:1" />
<path
   d="M 421.36,495.92 L 421.88,491.09 L 422.4,486.3 L 422.92,481.58 L 423.19,479.26 L 423.46,476.97 L 423.72,474.71 L 423.99,472.49 L 424.26,470.31 L 424.53,468.18 L 424.79,466.1 L 425.06,464.08 L 425.33,462.11 L 425.59,460.21 C 424.65,460.26 423.92,460.36 423.14,460.36 C 422.3,460.36 421.46,460.26 420.68,460.21 C 419.8,470.7 418.75,481.98 418.02,487.15 C 411.96,476.34 407.47,467.99 404.34,460.78 L 403.77,460.78 L 400.89,466.68 C 397.55,473.57 393.89,480.36 390.34,487.15 C 389.2,476.97 387.79,466.63 387.79,460.21 C 387.11,460.26 386.53,460.36 385.96,460.36 C 385.28,460.36 384.7,460.26 384.08,460.21 C 385.43,468.61 388.57,490.44 389.09,495.92 L 390.45,495.92 C 394.62,487.62 399.64,477.8 405.23,468.56 C 410.19,477.49 414.99,486.58 420.27,495.92 L 421.36,495.92 z"
   id="path31"
   style="fill:#0019e6;fill-rule:nonzero;stroke:#0019e6;stroke-width:0" />
<path
   d="M 421.36,495.92 L 421.88,491.09 L 422.4,486.3 L 422.92,481.58 L 423.19,479.26 L 423.46,476.97 L 423.72,474.71 L 423.99,472.49 L 424.26,470.31 L 424.53,468.18 L 424.79,466.1 L 425.06,464.08 L 425.33,462.11 L 425.59,460.21 C 424.65,460.26 423.92,460.36 423.14,460.36 C 422.3,460.36 421.46,460.26 420.68,460.21 C 419.8,470.7 418.75,481.98 418.02,487.15 C 411.96,476.34 407.47,467.99 404.34,460.78 L 403.77,460.78 L 400.89,466.68 C 397.55,473.57 393.89,480.36 390.34,487.15 C 389.2,476.97 387.79,466.63 387.79,460.21 C 387.11,460.26 386.53,460.36 385.96,460.36 C 385.28,460.36 384.7,460.26 384.08,460.21 C 385.43,468.61 388.57,490.44 389.09,495.92 L 390.45,495.92 C 394.62,487.62 399.64,477.8 405.23,468.56 C 410.19,477.49 414.99,486.58 420.27,495.92 L 421.36,495.92 z"
   id="path33"
   style="stroke:#ffffff;stroke-width:1" />
<path
   d="M 432.06,467.25 L 432.25,466.94 L 432.45,466.64 L 432.65,466.35 L 432.84,466.06 L 433.05,465.78 L 433.25,465.51 L 433.46,465.25 L 433.67,465 L 433.89,464.75 L 434.11,464.51 L 434.33,464.29 L 434.56,464.07 L 434.8,463.86 L 435.03,463.66 L 435.28,463.47 L 435.53,463.29 L 435.79,463.12 L 436.05,462.95 L 436.32,462.8 L 436.59,462.66 L 436.88,462.53 L 437.17,462.41 L 437.46,462.3 L 437.77,462.2 L 438.08,462.12 L 438.4,462.04 L 438.73,461.97 L 439.07,461.92 L 439.42,461.88 L 439.78,461.85 L 440.15,461.83 L 440.52,461.82 C 444.75,461.82 447.78,465.32 447.78,469.45 C 447.78,479.16 431.44,474.88 431.44,486.68 C 431.44,493.42 436.77,496.71 443.03,496.71 C 445.54,496.71 448.57,495.92 450.5,494.2 C 449.87,492.84 449.5,491.38 449.09,489.92 L 448.57,489.92 C 447.47,492.74 445.17,494.46 442.09,494.46 C 438.49,494.46 435.51,492.06 435.51,488.35 C 435.51,478.74 451.96,482.61 451.96,471.48 C 451.96,464.02 446.16,459.58 439.06,459.58 C 436.5,459.58 432.32,460.68 430.55,462.61 C 431.07,464.12 431.33,465.69 431.54,467.25 L 432.06,467.25 z"
   id="path35"
   style="fill:#0019e6;fill-rule:nonzero;stroke:#0019e6;stroke-width:0" />
<path
   d="M 432.06,467.25 L 432.25,466.94 L 432.45,466.64 L 432.65,466.35 L 432.84,466.06 L 433.05,465.78 L 433.25,465.51 L 433.46,465.25 L 433.67,465 L 433.89,464.75 L 434.11,464.51 L 434.33,464.29 L 434.56,464.07 L 434.8,463.86 L 435.03,463.66 L 435.28,463.47 L 435.53,463.29 L 435.79,463.12 L 436.05,462.95 L 436.32,462.8 L 436.59,462.66 L 436.88,462.53 L 437.17,462.41 L 437.46,462.3 L 437.77,462.2 L 438.08,462.12 L 438.4,462.04 L 438.73,461.97 L 439.07,461.92 L 439.42,461.88 L 439.78,461.85 L 440.15,461.83 L 440.52,461.82 C 444.75,461.82 447.78,465.32 447.78,469.45 C 447.78,479.16 431.44,474.88 431.44,486.68 C 431.44,493.42 436.77,496.71 443.03,496.71 C 445.54,496.71 448.57,495.92 450.5,494.2 C 449.87,492.84 449.5,491.38 449.09,489.92 L 448.57,489.92 C 447.47,492.74 445.17,494.46 442.09,494.46 C 438.49,494.46 435.51,492.06 435.51,488.35 C 435.51,478.74 451.96,482.61 451.96,471.48 C 451.96,464.02 446.16,459.58 439.06,459.58 C 436.5,459.58 432.32,460.68 430.55,462.61 C 431.07,464.12 431.33,465.69 431.54,467.25 L 432.06,467.25 z"
   id="path37"
   style="stroke:#ffffff;stroke-width:1" />
<path
   d="M 336.13,386.17 L 336.16,386.17 L 336.23,386.17 L 336.35,386.18 L 336.51,386.18 L 336.72,386.18 L 336.97,386.18 L 337.26,386.18 L 337.59,386.17 L 338.36,386.15 L 339.27,386.09 L 340.3,386 L 341.45,385.87 L 342.71,385.69 L 344.05,385.45 L 345.48,385.14 L 346.97,384.76 L 348.52,384.31 L 350.12,383.76 L 351.74,383.12 L 353.39,382.37 L 355.05,381.52 L 356.71,380.55 L 358.35,379.45 L 359.97,378.21 L 360.76,377.54 L 361.54,376.84 L 362.31,376.1 L 363.07,375.32 L 363.81,374.5 L 364.54,373.64 L 365.25,372.74 L 365.93,371.79 L 366.6,370.81 L 367.24,369.78 L 367.86,368.71 L 368.46,367.59 L 369.03,366.42 L 369.56,365.2 L 370.07,363.94 L 370.55,362.63 L 370.99,361.27 L 371.4,359.85 L 371.78,358.39 L 372.11,356.87 L 372.41,355.29 L 372.67,353.66 L 372.88,351.98 L 373.05,350.23 C 373.12,349.47 373.12,349.47 373.12,349.47 C 331.92,349.47 336.13,349.45 336.13,349.45 L 336.13,386.17 z"
   id="path39"
   style="fill:#2af825;fill-rule:nonzero;stroke:#2af825;stroke-width:0" />
<path
   d="M 336.13,386.17 L 336.16,386.17 L 336.23,386.17 L 336.35,386.18 L 336.51,386.18 L 336.72,386.18 L 336.97,386.18 L 337.26,386.18 L 337.59,386.17 L 338.36,386.15 L 339.27,386.09 L 340.3,386 L 341.45,385.87 L 342.71,385.69 L 344.05,385.45 L 345.48,385.14 L 346.97,384.76 L 348.52,384.31 L 350.12,383.76 L 351.74,383.12 L 353.39,382.37 L 355.05,381.52 L 356.71,380.55 L 358.35,379.45 L 359.97,378.21 L 360.76,377.54 L 361.54,376.84 L 362.31,376.1 L 363.07,375.32 L 363.81,374.5 L 364.54,373.64 L 365.25,372.74 L 365.93,371.79 L 366.6,370.81 L 367.24,369.78 L 367.86,368.71 L 368.46,367.59 L 369.03,366.42 L 369.56,365.2 L 370.07,363.94 L 370.55,362.63 L 370.99,361.27 L 371.4,359.85 L 371.78,358.39 L 372.11,356.87 L 372.41,355.29 L 372.67,353.66 L 372.88,351.98 L 373.05,350.23 C 373.12,349.47 373.12,349.47 373.12,349.47 C 331.92,349.47 336.13,349.45 336.13,349.45 L 336.13,386.17 z"
   id="path41"
   style="stroke:#858585;stroke-width:0.5" />
<path
   d="M 336.12,368.77 L 336.13,368.77 L 336.17,368.78 L 336.23,368.78 L 336.32,368.78 L 336.43,368.78 L 336.56,368.78 L 336.71,368.78 L 336.89,368.78 L 337.29,368.76 L 337.77,368.73 L 338.31,368.69 L 338.92,368.62 L 339.58,368.52 L 340.29,368.39 L 341.04,368.23 L 341.82,368.03 L 342.64,367.79 L 343.48,367.51 L 344.34,367.17 L 345.21,366.78 L 346.08,366.33 L 346.95,365.81 L 347.81,365.24 L 348.66,364.59 L 349.08,364.23 L 349.49,363.86 L 349.9,363.47 L 350.3,363.06 L 350.69,362.63 L 351.07,362.18 L 351.44,361.7 L 351.81,361.21 L 352.16,360.69 L 352.5,360.15 L 352.82,359.58 L 353.13,358.99 L 353.43,358.38 L 353.72,357.74 L 353.98,357.07 L 354.24,356.38 L 354.47,355.67 L 354.68,354.92 L 354.88,354.15 L 355.06,353.35 L 355.22,352.52 L 355.35,351.66 L 355.46,350.78 L 355.55,349.86 C 355.59,349.46 355.59,349.46 355.59,349.46 C 333.91,349.46 336.12,349.45 336.12,349.45 L 336.12,368.77 z"
   id="path43"
   style="fill:#70ff11;fill-rule:nonzero;stroke:#70ff11;stroke-width:0" />
<path
   d="M 336.12,368.77 L 336.13,368.77 L 336.17,368.78 L 336.23,368.78 L 336.32,368.78 L 336.43,368.78 L 336.56,368.78 L 336.71,368.78 L 336.89,368.78 L 337.29,368.76 L 337.77,368.73 L 338.31,368.69 L 338.92,368.62 L 339.58,368.52 L 340.29,368.39 L 341.04,368.23 L 341.82,368.03 L 342.64,367.79 L 343.48,367.51 L 344.34,367.17 L 345.21,366.78 L 346.08,366.33 L 346.95,365.81 L 347.81,365.24 L 348.66,364.59 L 349.08,364.23 L 349.49,363.86 L 349.9,363.47 L 350.3,363.06 L 350.69,362.63 L 351.07,362.18 L 351.44,361.7 L 351.81,361.21 L 352.16,360.69 L 352.5,360.15 L 352.82,359.58 L 353.13,358.99 L 353.43,358.38 L 353.72,357.74 L 353.98,357.07 L 354.24,356.38 L 354.47,355.67 L 354.68,354.92 L 354.88,354.15 L 355.06,353.35 L 355.22,352.52 L 355.35,351.66 L 355.46,350.78 L 355.55,349.86 C 355.59,349.46 355.59,349.46 355.59,349.46 C 333.91,349.46 336.12,349.45 336.12,349.45 L 336.12,368.77 z"
   id="path45"
   style="stroke:#858585;stroke-width:0.5" />
<path
   d="M 336.12,359.53 L 336.13,359.53 L 336.15,359.53 L 336.18,359.53 L 336.23,359.53 L 336.28,359.53 L 336.35,359.53 L 336.43,359.53 L 336.52,359.53 L 336.73,359.52 L 336.98,359.51 L 337.27,359.48 L 337.58,359.44 L 337.93,359.39 L 338.3,359.33 L 338.69,359.25 L 339.1,359.14 L 339.52,359.02 L 339.96,358.87 L 340.41,358.69 L 340.86,358.49 L 341.32,358.25 L 341.77,357.98 L 342.22,357.68 L 342.66,357.34 L 342.88,357.16 L 343.1,356.97 L 343.31,356.76 L 343.52,356.55 L 343.72,356.32 L 343.92,356.09 L 344.11,355.84 L 344.3,355.58 L 344.49,355.31 L 344.66,355.03 L 344.83,354.73 L 345,354.43 L 345.15,354.11 L 345.3,353.77 L 345.44,353.43 L 345.57,353.07 L 345.69,352.69 L 345.8,352.3 L 345.91,351.9 L 346,351.48 L 346.08,351.05 L 346.15,350.61 L 346.21,350.14 L 346.26,349.66 C 346.27,349.45 346.27,349.45 346.27,349.45 C 334.96,349.45 336.12,349.45 336.12,349.45 L 336.12,359.53 z"
   id="path47"
   style="fill:#a5f379;fill-rule:nonzero;stroke:#a5f379;stroke-width:0" />
<path
   d="M 336.12,359.53 L 336.13,359.53 L 336.15,359.53 L 336.18,359.53 L 336.23,359.53 L 336.28,359.53 L 336.35,359.53 L 336.43,359.53 L 336.52,359.53 L 336.73,359.52 L 336.98,359.51 L 337.27,359.48 L 337.58,359.44 L 337.93,359.39 L 338.3,359.33 L 338.69,359.25 L 339.1,359.14 L 339.52,359.02 L 339.96,358.87 L 340.41,358.69 L 340.86,358.49 L 341.32,358.25 L 341.77,357.98 L 342.22,357.68 L 342.66,357.34 L 342.88,357.16 L 343.1,356.97 L 343.31,356.76 L 343.52,356.55 L 343.72,356.32 L 343.92,356.09 L 344.11,355.84 L 344.3,355.58 L 344.49,355.31 L 344.66,355.03 L 344.83,354.73 L 345,354.43 L 345.15,354.11 L 345.3,353.77 L 345.44,353.43 L 345.57,353.07 L 345.69,352.69 L 345.8,352.3 L 345.91,351.9 L 346,351.48 L 346.08,351.05 L 346.15,350.61 L 346.21,350.14 L 346.26,349.66 C 346.27,349.45 346.27,349.45 346.27,349.45 C 334.96,349.45 336.12,349.45 336.12,349.45 L 336.12,359.53 z"
   id="path49"
   style="stroke:#858585;stroke-width:0.5" />
<path
   d="M 337.53,351.02 L 337.59,351.14 L 337.76,351.5 L 338.06,352.09 L 338.49,352.89 L 339.04,353.89 L 339.72,355.08 L 340.54,356.44 L 341.49,357.95 L 342.58,359.61 L 343.81,361.41 L 345.18,363.32 L 346.7,365.33 L 348.37,367.44 L 350.18,369.62 L 352.16,371.87 L 354.29,374.17 L 356.58,376.5 L 359.03,378.86 L 361.64,381.23 L 364.42,383.59 L 367.38,385.94 L 370.5,388.26 L 373.8,390.53 L 377.28,392.75 L 380.94,394.9 L 384.78,396.96 L 388.81,398.92 L 393.03,400.78 L 397.44,402.51 L 402.04,404.1 L 406.84,405.54 L 411.84,406.81 C 443.17,414.11 473.13,430.94 486.83,446.92"
   id="path51"
   style="stroke:#f8dfc6;stroke-width:9;stroke-linecap:round;stroke-linejoin:round" />
<path
   d="M 484.34,487.19 L 484.25,487.08 L 483.96,486.74 L 483.48,486.2 L 482.81,485.45 L 481.96,484.51 L 480.92,483.39 L 479.71,482.08 L 478.32,480.61 L 476.75,478.99 L 475.01,477.21 L 473.11,475.29 L 471.04,473.24 L 468.81,471.07 L 466.41,468.78 L 463.86,466.39 L 461.15,463.9 L 458.29,461.32 L 455.28,458.66 L 452.13,455.94 L 448.83,453.15 L 445.39,450.31 L 441.81,447.42 L 438.09,444.5 L 434.24,441.56 L 430.26,438.59 L 426.16,435.62 L 421.92,432.65 L 417.57,429.69 L 413.09,426.75 L 408.5,423.83 L 403.79,420.95 L 398.97,418.11 C 346.38,387.78 337.53,351.02 337.53,351.02"
   id="path53"
   style="stroke:#f8dfc6;stroke-width:9;stroke-linecap:round;stroke-linejoin:round" />
<path
   d="M 337.53,351.02 L 337.54,351.04 L 337.59,351.12 L 337.67,351.25 L 337.78,351.43 L 337.93,351.66 L 338.1,351.93 L 338.55,352.61 L 339.13,353.44 L 339.84,354.43 L 340.67,355.54 L 341.63,356.78 L 342.73,358.12 L 343.95,359.55 L 345.3,361.06 L 346.78,362.63 L 348.39,364.25 L 350.13,365.91 L 352,367.59 L 354,369.27 L 356.12,370.95 L 358.38,372.6 L 360.77,374.22 L 363.29,375.79 L 365.94,377.29 L 368.72,378.72 L 371.63,380.06 L 374.67,381.29 L 377.84,382.4 L 381.14,383.38 L 384.58,384.21 L 388.14,384.88 L 389.97,385.15 L 391.84,385.37 L 393.73,385.54 L 395.66,385.67 L 397.63,385.75 L 399.62,385.77 L 401.65,385.74 L 403.71,385.65 C 438.65,383.68 470.14,397.3 479.99,417.66"
   id="path55"
   style="stroke:#f8dfc6;stroke-width:9;stroke-linecap:round;stroke-linejoin:round" />
<path
   d="M 337.53,351.02 L 337.58,351.1 L 337.73,351.35 L 338,351.75 L 338.38,352.28 L 338.87,352.93 L 339.48,353.7 L 340.22,354.56 L 341.08,355.51 L 342.07,356.52 L 343.2,357.59 L 344.46,358.71 L 345.86,359.85 L 347.41,361.01 L 349.1,362.18 L 350.94,363.34 L 352.94,364.47 L 355.1,365.57 L 357.42,366.62 L 359.91,367.61 L 362.56,368.52 L 365.39,369.34 L 368.39,370.07 L 369.96,370.39 L 371.57,370.68 L 373.23,370.93 L 374.93,371.16 L 376.69,371.34 L 378.48,371.49 L 380.33,371.61 L 382.23,371.68 L 384.17,371.71 L 386.16,371.7 L 388.2,371.64 L 390.29,371.53 L 392.43,371.38 L 394.62,371.17 L 396.87,370.92 L 399.16,370.61 L 401.51,370.24 L 403.9,369.82 L 406.35,369.34 L 408.86,368.8 C 457.73,357.8 460.82,372.2 468.53,380.47"
   id="path57"
   style="stroke:#f8dfc6;stroke-width:9;stroke-linecap:round;stroke-linejoin:round" />
<path
   d="M 337.53,351.02 L 337.59,351.14 L 337.76,351.5 L 338.06,352.09 L 338.49,352.89 L 339.04,353.89 L 339.72,355.08 L 340.54,356.44 L 341.49,357.95 L 342.58,359.61 L 343.81,361.41 L 345.18,363.32 L 346.7,365.33 L 348.37,367.44 L 350.18,369.62 L 352.16,371.87 L 354.29,374.17 L 356.58,376.5 L 359.03,378.86 L 361.64,381.23 L 364.42,383.59 L 367.38,385.94 L 370.5,388.26 L 373.8,390.53 L 377.28,392.75 L 380.94,394.9 L 384.78,396.96 L 388.81,398.92 L 393.03,400.78 L 397.44,402.51 L 402.04,404.1 L 406.84,405.54 L 411.84,406.81 C 443.17,414.11 473.13,430.94 486.83,446.92"
   id="path59"
   style="stroke:#f52211;stroke-width:6;stroke-linecap:round;stroke-linejoin:round" />
<path
   d="M 484.34,487.19 L 484.25,487.08 L 483.96,486.74 L 483.48,486.2 L 482.81,485.45 L 481.96,484.51 L 480.92,483.39 L 479.71,482.08 L 478.32,480.61 L 476.75,478.99 L 475.01,477.21 L 473.11,475.29 L 471.04,473.24 L 468.81,471.07 L 466.41,468.78 L 463.86,466.39 L 461.15,463.9 L 458.29,461.32 L 455.28,458.66 L 452.13,455.94 L 448.83,453.15 L 445.39,450.31 L 441.81,447.42 L 438.09,444.5 L 434.24,441.56 L 430.26,438.59 L 426.16,435.62 L 421.92,432.65 L 417.57,429.69 L 413.09,426.75 L 408.5,423.83 L 403.79,420.95 L 398.97,418.11 C 346.38,387.78 337.53,351.02 337.53,351.02"
   id="path61"
   style="stroke:#f52211;stroke-width:6;stroke-linecap:round;stroke-linejoin:round" />
<path
   d="M 337.53,351.02 L 337.54,351.04 L 337.59,351.12 L 337.67,351.25 L 337.78,351.43 L 337.93,351.66 L 338.1,351.93 L 338.55,352.61 L 339.13,353.44 L 339.84,354.43 L 340.67,355.54 L 341.63,356.78 L 342.73,358.12 L 343.95,359.55 L 345.3,361.06 L 346.78,362.63 L 348.39,364.25 L 350.13,365.91 L 352,367.59 L 354,369.27 L 356.12,370.95 L 358.38,372.6 L 360.77,374.22 L 363.29,375.79 L 365.94,377.29 L 368.72,378.72 L 371.63,380.06 L 374.67,381.29 L 377.84,382.4 L 381.14,383.38 L 384.58,384.21 L 388.14,384.88 L 389.97,385.15 L 391.84,385.37 L 393.73,385.54 L 395.66,385.67 L 397.63,385.75 L 399.62,385.77 L 401.65,385.74 L 403.71,385.65 C 438.65,383.68 470.14,397.3 479.99,417.66"
   id="path63"
   style="stroke:#f52211;stroke-width:6;stroke-linecap:round;stroke-linejoin:round" />
<path
   d="M 337.53,351.02 L 337.58,351.1 L 337.73,351.35 L 338,351.75 L 338.38,352.28 L 338.87,352.93 L 339.48,353.7 L 340.22,354.56 L 341.08,355.51 L 342.07,356.52 L 343.2,357.59 L 344.46,358.71 L 345.86,359.85 L 347.41,361.01 L 349.1,362.18 L 350.94,363.34 L 352.94,364.47 L 355.1,365.57 L 357.42,366.62 L 359.91,367.61 L 362.56,368.52 L 365.39,369.34 L 368.39,370.07 L 369.96,370.39 L 371.57,370.68 L 373.23,370.93 L 374.93,371.16 L 376.69,371.34 L 378.48,371.49 L 380.33,371.61 L 382.23,371.68 L 384.17,371.71 L 386.16,371.7 L 388.2,371.64 L 390.29,371.53 L 392.43,371.38 L 394.62,371.17 L 396.87,370.92 L 399.16,370.61 L 401.51,370.24 L 403.9,369.82 L 406.35,369.34 L 408.86,368.8 C 457.73,357.8 460.82,372.2 468.53,380.47"
   id="path65"
   style="stroke:#f52211;stroke-width:6;stroke-linecap:round;stroke-linejoin:round" />
<polygon
   points="336.96,349.47 504.03,349.47 504.03,516.68 336.96,516.68 336.96,349.47 "
   id="polygon67"
   style="stroke-width:2" />
<polygon
   points="264.46,379.68 336.04,379.68 336.04,394.83 264.46,394.83 264.46,379.68 "
   id="polygon69"
   style="fill:#ff0000;fill-rule:nonzero;stroke:#ff0000;stroke-width:0" />
<polygon
   points="264.46,379.68 336.04,379.68 336.04,394.83 264.46,394.83 264.46,379.68 "
   id="polygon71"
   style="stroke:#ff0000;stroke-width:0.25" />
<polygon
   points="264.46,394.75 336.04,394.75 336.04,409.9 264.46,409.9 264.46,394.75 "
   id="polygon73"
   style="fill:#ffffff;fill-rule:nonzero;stroke:#ffffff;stroke-width:0" />
<polygon
   points="264.46,394.75 336.04,394.75 336.04,409.9 264.46,409.9 264.46,394.75 "
   id="polygon75"
   style="stroke:#ffffff;stroke-width:0.25" />
<polygon
   points="264.46,409.82 336.04,409.82 336.04,424.97 264.46,424.97 264.46,409.82 "
   id="polygon77"
   style="fill:#ff0000;fill-rule:nonzero;stroke:#ff0000;stroke-width:0" />
<polygon
   points="264.46,409.82 336.04,409.82 336.04,424.97 264.46,424.97 264.46,409.82 "
   id="polygon79"
   style="stroke:#ff0000;stroke-width:0.25" />
<polygon
   points="264.46,349.54 336.04,349.54 336.04,364.69 264.46,364.69 264.46,349.54 "
   id="polygon81"
   style="fill:#ff0000;fill-rule:nonzero;stroke:#ff0000;stroke-width:0" />
<polygon
   points="264.46,349.54 336.04,349.54 336.04,364.69 264.46,364.69 264.46,349.54 "
   id="polygon83"
   style="stroke:#ff0000;stroke-width:0.25" />
<polygon
   points="264.46,364.61 336.04,364.61 336.04,379.76 264.46,379.76 264.46,364.61 "
   id="polygon85"
   style="fill:#ffffff;fill-rule:nonzero;stroke:#ffffff;stroke-width:0" />
<polygon
   points="264.46,364.61 336.04,364.61 336.04,379.76 264.46,379.76 264.46,364.61 "
   id="polygon87"
   style="stroke:#ffffff;stroke-width:0.25" />
<polygon
   points="264.46,455.31 336.04,455.31 336.04,470.46 264.46,470.46 264.46,455.31 "
   id="polygon89"
   style="fill:#ffffff;fill-rule:nonzero;stroke:#ffffff;stroke-width:0" />
<polygon
   points="264.46,455.31 336.04,455.31 336.04,470.46 264.46,470.46 264.46,455.31 "
   id="polygon91"
   style="stroke:#ffffff;stroke-width:0.25" />
<polygon
   points="264.46,470.38 336.04,470.38 336.04,485.53 264.46,485.53 264.46,470.38 "
   id="polygon93"
   style="fill:#ff0000;fill-rule:nonzero;stroke:#ff0000;stroke-width:0" />
<polygon
   points="264.46,470.38 336.04,470.38 336.04,485.53 264.46,485.53 264.46,470.38 "
   id="polygon95"
   style="stroke:#ff0000;stroke-width:0.25" />
<polygon
   points="264.46,485.45 336.04,485.45 336.04,500.6 264.46,500.6 264.46,485.45 "
   id="polygon97"
   style="fill:#ffffff;fill-rule:nonzero;stroke:#ffffff;stroke-width:0" />
<polygon
   points="264.46,485.45 336.04,485.45 336.04,500.6 264.46,500.6 264.46,485.45 "
   id="polygon99"
   style="stroke:#ffffff;stroke-width:0.25" />
<polygon
   points="264.46,425.17 336.04,425.17 336.04,440.31 264.46,440.31 264.46,425.17 "
   id="polygon101"
   style="fill:#ffffff;fill-rule:nonzero;stroke:#ffffff;stroke-width:0" />
<polygon
   points="264.46,425.17 336.04,425.17 336.04,440.31 264.46,440.31 264.46,425.17 "
   id="polygon103"
   style="stroke:#ffffff;stroke-width:0.25" />
<polygon
   points="264.46,440.24 336.04,440.24 336.04,455.38 264.46,455.38 264.46,440.24 "
   id="polygon105"
   style="fill:#ff0000;fill-rule:nonzero;stroke:#ff0000;stroke-width:0" />
<polygon
   points="264.46,440.24 336.04,440.24 336.04,455.38 264.46,455.38 264.46,440.24 "
   id="polygon107"
   style="stroke:#ff0000;stroke-width:0.25" />
<polygon
   points="264.46,500.82 336.04,500.82 336.04,515.97 264.46,515.97 264.46,500.82 "
   id="polygon109"
   style="fill:#ff0000;fill-rule:nonzero;stroke:#ff0000;stroke-width:0" />
<polygon
   points="264.46,500.82 336.04,500.82 336.04,515.97 264.46,515.97 264.46,500.82 "
   id="polygon111"
   style="stroke:#ff0000;stroke-width:0.25" />
<path
   d="M 311.81,467.98 L 312,467.67 L 312.19,467.37 L 312.39,467.08 L 312.59,466.79 L 312.79,466.51 L 313,466.24 L 313.2,465.98 L 313.42,465.73 L 313.63,465.48 L 313.85,465.25 L 314.08,465.02 L 314.31,464.8 L 314.54,464.59 L 314.78,464.39 L 315.02,464.2 L 315.27,464.02 L 315.53,463.85 L 315.79,463.68 L 316.06,463.53 L 316.34,463.39 L 316.62,463.26 L 316.91,463.14 L 317.21,463.03 L 317.51,462.93 L 317.83,462.85 L 318.15,462.77 L 318.48,462.7 L 318.82,462.65 L 319.17,462.61 L 319.52,462.58 L 319.89,462.56 L 320.27,462.55 C 324.5,462.55 327.52,466.05 327.52,470.18 C 327.52,479.89 311.18,475.61 311.18,487.41 C 311.18,494.15 316.51,497.44 322.77,497.44 C 325.28,497.44 328.31,496.65 330.24,494.93 C 329.61,493.57 329.25,492.11 328.83,490.65 L 328.31,490.65 C 327.21,493.47 324.91,495.19 321.83,495.19 C 318.23,495.19 315.25,492.79 315.25,489.08 C 315.25,479.47 331.7,483.34 331.7,472.21 C 331.7,464.75 325.91,460.31 318.8,460.31 C 316.25,460.31 312.07,461.41 310.29,463.34 C 310.82,464.85 311.08,466.42 311.29,467.98 L 311.81,467.98 z"
   id="path113"
   style="fill:#0019e6;fill-rule:nonzero;stroke:#0019e6;stroke-width:0" />
<path
   d="M 311.81,467.98 L 312,467.67 L 312.19,467.37 L 312.39,467.08 L 312.59,466.79 L 312.79,466.51 L 313,466.24 L 313.2,465.98 L 313.42,465.73 L 313.63,465.48 L 313.85,465.25 L 314.08,465.02 L 314.31,464.8 L 314.54,464.59 L 314.78,464.39 L 315.02,464.2 L 315.27,464.02 L 315.53,463.85 L 315.79,463.68 L 316.06,463.53 L 316.34,463.39 L 316.62,463.26 L 316.91,463.14 L 317.21,463.03 L 317.51,462.93 L 317.83,462.85 L 318.15,462.77 L 318.48,462.7 L 318.82,462.65 L 319.17,462.61 L 319.52,462.58 L 319.89,462.56 L 320.27,462.55 C 324.5,462.55 327.52,466.05 327.52,470.18 C 327.52,479.89 311.18,475.61 311.18,487.41 C 311.18,494.15 316.51,497.44 322.77,497.44 C 325.28,497.44 328.31,496.65 330.24,494.93 C 329.61,493.57 329.25,492.11 328.83,490.65 L 328.31,490.65 C 327.21,493.47 324.91,495.19 321.83,495.19 C 318.23,495.19 315.25,492.79 315.25,489.08 C 315.25,479.47 331.7,483.34 331.7,472.21 C 331.7,464.75 325.91,460.31 318.8,460.31 C 316.25,460.31 312.07,461.41 310.29,463.34 C 310.82,464.85 311.08,466.42 311.29,467.98 L 311.81,467.98 z"
   id="path115"
   style="stroke:#ffffff;stroke-width:1" />
<path
   d="M 298.95,496.43 L 299.24,495.66 L 299.51,494.86 L 299.76,494.04 L 299.98,493.2 L 300.19,492.33 L 300.37,491.45 L 300.53,490.56 L 300.67,489.65 L 300.79,488.73 L 300.9,487.81 L 300.98,486.88 L 301.05,485.95 L 301.11,485.01 L 301.14,484.08 L 301.16,483.16 L 301.17,482.24 C 301.19,468.1 295.79,459.61 287.29,459.59 C 278.55,459.56 273.57,470.21 273.55,483.77 C 273.55,488.46 274.21,493.29 275.33,497.59 C 276.3,496.95 277.31,496.57 278.32,496.25 L 278.36,495.8 C 278.97,496.59 277.81,489.28 277.82,483.11 C 277.83,471.29 279.96,463.34 286.57,463.36 C 294.03,463.38 296.08,473.96 296.07,484.11 C 296.06,491.05 297.16,495.46 296.5,496.75 L 298.95,496.43 z"
   id="path117"
   style="fill:#0019e6;fill-rule:nonzero;stroke:#0019e6;stroke-width:0" />
<path
   d="M 298.95,496.43 L 299.24,495.66 L 299.51,494.86 L 299.76,494.04 L 299.98,493.2 L 300.19,492.33 L 300.37,491.45 L 300.53,490.56 L 300.67,489.65 L 300.79,488.73 L 300.9,487.81 L 300.98,486.88 L 301.05,485.95 L 301.11,485.01 L 301.14,484.08 L 301.16,483.16 L 301.17,482.24 C 301.19,468.1 295.79,459.61 287.29,459.59 C 278.55,459.56 273.57,470.21 273.55,483.77 C 273.55,488.46 274.21,493.29 275.33,497.59 C 276.3,496.95 277.31,496.57 278.32,496.25 L 278.36,495.8 C 278.97,496.59 277.81,489.28 277.82,483.11 C 277.83,471.29 279.96,463.34 286.57,463.36 C 294.03,463.38 296.08,473.96 296.07,484.11 C 296.06,491.05 297.16,495.46 296.5,496.75 L 298.95,496.43 z"
   id="path119"
   style="stroke:#ffffff;stroke-width:1" />
<polyline
   points="336.96,516.68 264,516.68 264,349.54 336.04,349.54 "
   id="polyline121"
   style="stroke-width:2" />
</g></svg>
